<svg width="25" height="25" viewBox="0 0 25 25" fill="none" xmlns="http://www.w3.org/2000/svg">
<path d="M24.5716 9.12271L23.3489 7.89998C22.7777 7.32877 21.8484 7.32887 21.2772 7.89998L18.7017 10.4755V2.19733C18.7017 0.985721 17.716 0 16.5044 0H2.19733C0.985721 0 0 0.985721 0 2.19733V22.8034C0 24.015 0.985721 25.0007 2.19733 25.0007H16.5044C17.716 25.0007 18.7017 24.015 18.7017 22.8034V16.9911L24.5716 11.1944C25.1428 10.6232 25.1428 9.69387 24.5716 9.12271ZM15.8117 17.7862L13.6084 18.8144L14.6356 16.6133L20.1033 11.1456L21.3122 12.3544L15.8117 17.7862ZM17.2368 22.8034C17.2368 23.2072 16.9082 23.5358 16.5044 23.5358H2.19733C1.79346 23.5358 1.46488 23.2072 1.46488 22.8034V2.19733C1.46488 1.79346 1.79346 1.46488 2.19733 1.46488H16.5044C16.9082 1.46488 17.2368 1.79346 17.2368 2.19733V11.9404C13.1752 16.002 13.4405 15.7102 13.3627 15.8768L11.4291 20.0202C11.2989 20.2993 11.3572 20.6301 11.5749 20.8478C11.7927 21.0657 12.1236 21.1239 12.4026 20.9937L16.546 19.0601C16.6979 18.9892 16.7229 18.9451 17.2368 18.4376V22.8034ZM22.3544 11.3252L21.1391 10.1098L22.3131 8.9358L23.5354 10.1589L22.3544 11.3252Z" fill="black"/>
<path d="M3.90627 6.20146H14.8441C15.2486 6.20146 15.5765 5.87352 15.5765 5.46901C15.5765 5.06451 15.2486 4.73657 14.8441 4.73657H3.90627C3.50177 4.73657 3.17383 5.06451 3.17383 5.46901C3.17383 5.87352 3.50177 6.20146 3.90627 6.20146Z" fill="black"/>
<path d="M3.90627 10.1077H12.5003C12.9048 10.1077 13.2327 9.77977 13.2327 9.37526C13.2327 8.97076 12.9048 8.64282 12.5003 8.64282H3.90627C3.50177 8.64282 3.17383 8.97076 3.17383 9.37526C3.17383 9.77977 3.50177 10.1077 3.90627 10.1077Z" fill="black"/>
<path d="M10.1564 12.5491H3.90627C3.50177 12.5491 3.17383 12.877 3.17383 13.2815C3.17383 13.686 3.50177 14.014 3.90627 14.014H10.1564C10.5609 14.014 10.8889 13.686 10.8889 13.2815C10.8889 12.877 10.5609 12.5491 10.1564 12.5491Z" fill="black"/>
</svg>
