<svg width="37" height="31" viewBox="0 0 37 31" fill="none" xmlns="http://www.w3.org/2000/svg">
<path d="M18.4996 21.5833C18.1835 21.5833 17.8814 21.4538 17.664 21.2257L9.57025 12.7465C8.86879 12.0127 9.38987 10.7917 10.4058 10.7917H14.6454V1.92708C14.6454 0.864875 15.5103 0 16.5725 0H20.4267C21.4889 0 22.3537 0.864875 22.3537 1.92708V10.7917H26.5933C27.6093 10.7917 28.1304 12.0127 27.4289 12.7465L19.3352 21.2257C19.1178 21.4538 18.8156 21.5833 18.4996 21.5833Z" fill="black"/>
<path d="M34.3021 30.8327H2.69792C1.21021 30.8327 0 29.6225 0 28.1348V27.3639C0 25.8762 1.21021 24.666 2.69792 24.666H34.3021C35.7898 24.666 37 25.8762 37 27.3639V28.1348C37 29.6225 35.7898 30.8327 34.3021 30.8327Z" fill="black"/>
</svg>
