<svg width="26" height="25" viewBox="0 0 26 25" fill="none" xmlns="http://www.w3.org/2000/svg">
<path d="M25.1175 9.3343L25.1176 9.33446C25.1455 9.41954 25.1229 9.51422 25.0556 9.57908L25.0556 9.57911L19.306 15.1196L19.115 15.3037L19.1603 15.5651L20.5177 23.3883C20.5329 23.4761 20.4969 23.5674 20.4198 23.6229C20.3763 23.6541 20.3239 23.6706 20.2702 23.6706C20.2292 23.6706 20.1885 23.661 20.1514 23.6417L13.0452 19.948L12.8146 19.8282L12.584 19.948L5.47769 23.6417C5.47768 23.6417 5.47768 23.6417 5.47767 23.6417C5.39157 23.6865 5.28705 23.6787 5.20916 23.6228C5.13213 23.5674 5.09618 23.4762 5.11142 23.3883C5.11142 23.3883 5.11142 23.3883 5.11142 23.3883L6.46837 15.5651L6.5137 15.3037L6.32269 15.1196L0.573718 9.57912L0.573672 9.57908C0.506469 9.51433 0.483735 9.41964 0.51179 9.33428L0.511825 9.33417C0.53997 9.24847 0.61672 9.18191 0.713906 9.16796L0.713989 9.16795L8.65902 8.0264L8.91827 7.98915L9.03526 7.75482L12.5887 0.637108L12.5887 0.637069C12.6296 0.555265 12.7161 0.5 12.8147 0.5C12.9133 0.5 12.9998 0.555249 13.0406 0.637068L13.0407 0.637096L16.5939 7.75486L16.7109 7.98921L16.9702 8.02645L24.9153 9.16795L24.9154 9.16797C25.0125 9.1819 25.0893 9.24836 25.1175 9.3343Z" stroke="#FED42D"/>
</svg>
