<svg width="17" height="15" viewBox="0 0 17 15" fill="none" xmlns="http://www.w3.org/2000/svg">
<path d="M12.0441 0C11.2514 0 10.4939 0.176762 9.79246 0.52541C9.31498 0.762695 8.87638 1.07796 8.5 1.45201C8.12362 1.07796 7.68502 0.762695 7.20754 0.52541C6.50609 0.176762 5.74852 0 4.95587 0C2.22321 0 0 2.16271 0 4.82102C0 6.70386 1.02221 8.70358 3.0382 10.7647C4.72144 12.4856 6.78226 13.9202 8.21465 14.8206L8.5 15L8.78535 14.8206C10.2177 13.9202 12.2786 12.4856 13.9618 10.7647C15.9778 8.70358 17 6.70386 17 4.82102C17 2.16271 14.7768 0 12.0441 0Z" fill="#FC2929"/>
</svg>
