<svg width="41" height="41" viewBox="0 0 41 41" fill="none" xmlns="http://www.w3.org/2000/svg">
<circle cx="20.5" cy="20.5" r="20.5" fill="url(#paint0_linear_0_6224)"/>
<path d="M32.9167 20.9167H29.411L26.3787 9.79738C26.2477 9.31745 25.8046 8.99463 25.3084 9.00007C24.8101 9.012 24.3844 9.36188 24.2749 9.84725L20.7562 25.6812L16.6027 14.0516C16.4446 13.6086 16.0232 13.3226 15.5487 13.3334C15.0774 13.3486 14.6712 13.6659 14.5412 14.1188L12.5998 20.9167H9.08332C8.48425 20.9167 8 21.402 8 22C8 22.598 8.48425 23.0833 9.08332 23.0833H13.4166C13.8998 23.0833 14.3256 22.7626 14.4577 22.2968L15.697 17.9581L19.9805 29.9473C20.1343 30.3806 20.5438 30.6666 20.9999 30.6666C21.0227 30.6666 21.0444 30.6656 21.0671 30.6645C21.5481 30.6341 21.9522 30.2896 22.0573 29.8184L25.4395 14.5943L27.5379 22.2849C27.6669 22.7561 28.0948 23.0833 28.5834 23.0833H32.9167C33.5157 23.0833 34 22.598 34 22C34 21.402 33.5157 20.9167 32.9167 20.9167Z" fill="white"/>
<defs>
<linearGradient id="paint0_linear_0_6224" x1="34.5" y1="9.99832e-07" x2="1.00129e-06" y2="33.5" gradientUnits="userSpaceOnUse">
<stop stop-color="#2D73C2"/>
<stop offset="1" stop-color="#B12993"/>
</linearGradient>
</defs>
</svg>
