<svg width="27" height="27" viewBox="0 0 27 27" fill="none" xmlns="http://www.w3.org/2000/svg">
<circle cx="13.5" cy="13.5" r="13.5" fill="#5F95FF"/>
<path d="M16.4663 12.4698C16.4055 12.3355 16.272 12.25 16.125 12.25H14.625V7.375C14.625 7.168 14.457 7 14.25 7H12.75C12.543 7 12.375 7.168 12.375 7.375V12.25H10.875C10.728 12.25 10.5945 12.3363 10.5338 12.4698C10.4723 12.604 10.4963 12.7607 10.593 12.8717L13.218 15.8717C13.2893 15.9535 13.392 16 13.5 16C13.608 16 13.7108 15.9528 13.782 15.8717L16.407 12.8717C16.5045 12.7615 16.527 12.604 16.4663 12.4698Z" fill="white"/>
<path d="M17.625 15.25V17.5H9.375V15.25H7.875V18.25C7.875 18.6648 8.211 19 8.625 19H18.375C18.7898 19 19.125 18.6648 19.125 18.25V15.25H17.625Z" fill="white"/>
</svg>
