<svg width="11" height="13" viewBox="0 0 11 13" fill="none" xmlns="http://www.w3.org/2000/svg">
<path d="M6.91262 2.47656H3.61104C3.52895 2.47656 3.45022 2.50917 3.39217 2.56722C3.33412 2.62527 3.30151 2.704 3.30151 2.78609V8.04799H4.53961V6.50037C4.53961 6.41828 4.57222 6.33955 4.63027 6.28151C4.68831 6.22346 4.76704 6.19085 4.84913 6.19085H5.67453C5.75662 6.19085 5.83535 6.22346 5.8934 6.28151C5.95144 6.33955 5.98405 6.41828 5.98405 6.50037V8.04799H7.22215V2.78609C7.22215 2.704 7.18954 2.62527 7.13149 2.56722C7.07344 2.50917 6.99472 2.47656 6.91262 2.47656ZM4.33326 5.26228C4.33326 5.34437 4.30065 5.4231 4.2426 5.48114C4.18456 5.53919 4.10583 5.5718 4.02374 5.5718C3.94165 5.5718 3.86292 5.53919 3.80487 5.48114C3.74682 5.4231 3.71421 5.34437 3.71421 5.26228V4.84958C3.71421 4.76749 3.74682 4.68876 3.80487 4.63071C3.86292 4.57266 3.94165 4.54005 4.02374 4.54005C4.10583 4.54005 4.18456 4.57266 4.2426 4.63071C4.30065 4.68876 4.33326 4.76749 4.33326 4.84958V5.26228ZM4.33326 3.61148C4.33326 3.69357 4.30065 3.7723 4.2426 3.83035C4.18456 3.8884 4.10583 3.92101 4.02374 3.92101C3.94165 3.92101 3.86292 3.8884 3.80487 3.83035C3.74682 3.7723 3.71421 3.69357 3.71421 3.61148V3.19878C3.71421 3.11669 3.74682 3.03797 3.80487 2.97992C3.86292 2.92187 3.94165 2.88926 4.02374 2.88926C4.10583 2.88926 4.18456 2.92187 4.2426 2.97992C4.30065 3.03797 4.33326 3.11669 4.33326 3.19878V3.61148ZM5.57135 5.26228C5.57135 5.34437 5.53874 5.4231 5.4807 5.48114C5.42265 5.53919 5.34392 5.5718 5.26183 5.5718C5.17974 5.5718 5.10101 5.53919 5.04296 5.48114C4.98492 5.4231 4.95231 5.34437 4.95231 5.26228V4.84958C4.95231 4.76749 4.98492 4.68876 5.04296 4.63071C5.10101 4.57266 5.17974 4.54005 5.26183 4.54005C5.34392 4.54005 5.42265 4.57266 5.4807 4.63071C5.53874 4.68876 5.57135 4.76749 5.57135 4.84958V5.26228ZM5.57135 3.61148C5.57135 3.69357 5.53874 3.7723 5.4807 3.83035C5.42265 3.8884 5.34392 3.92101 5.26183 3.92101C5.17974 3.92101 5.10101 3.8884 5.04296 3.83035C4.98492 3.7723 4.95231 3.69357 4.95231 3.61148V3.19878C4.95231 3.11669 4.98492 3.03797 5.04296 2.97992C5.10101 2.92187 5.17974 2.88926 5.26183 2.88926C5.34392 2.88926 5.42265 2.92187 5.4807 2.97992C5.53874 3.03797 5.57135 3.11669 5.57135 3.19878V3.61148ZM6.80945 5.26228C6.80945 5.34437 6.77684 5.4231 6.71879 5.48114C6.66075 5.53919 6.58202 5.5718 6.49993 5.5718C6.41784 5.5718 6.33911 5.53919 6.28106 5.48114C6.22301 5.4231 6.1904 5.34437 6.1904 5.26228V4.84958C6.1904 4.76749 6.22301 4.68876 6.28106 4.63071C6.33911 4.57266 6.41784 4.54005 6.49993 4.54005C6.58202 4.54005 6.66075 4.57266 6.71879 4.63071C6.77684 4.68876 6.80945 4.76749 6.80945 4.84958V5.26228ZM6.80945 3.61148C6.80945 3.69357 6.77684 3.7723 6.71879 3.83035C6.66075 3.8884 6.58202 3.92101 6.49993 3.92101C6.41784 3.92101 6.33911 3.8884 6.28106 3.83035C6.22301 3.7723 6.1904 3.69357 6.1904 3.61148V3.19878C6.1904 3.11669 6.22301 3.03797 6.28106 2.97992C6.33911 2.92187 6.41784 2.88926 6.49993 2.88926C6.58202 2.88926 6.66075 2.92187 6.71879 2.97992C6.77684 3.03797 6.80945 3.11669 6.80945 3.19878V3.61148Z" fill="#939393"/>
<path d="M5.2619 0C2.36048 0 0 2.36048 0 5.2619C0 6.16048 0.272587 7.12717 0.81023 8.13532C1.2325 8.92705 1.8193 9.74781 2.55437 10.5748C3.79886 11.9747 5.0246 12.8994 5.07619 12.9381C5.12977 12.9783 5.19493 13 5.2619 13C5.32888 13 5.39404 12.9783 5.44762 12.9381C5.49921 12.8994 6.72495 11.9747 7.96944 10.5747C8.70456 9.74773 9.29131 8.92698 9.71358 8.13524C10.2512 7.12717 10.5238 6.16048 10.5238 5.2619C10.5238 2.36048 8.16333 0 5.2619 0ZM5.2619 9.38889C4.68944 9.38912 4.12322 9.26996 3.59941 9.03901C3.07559 8.80807 2.6057 8.47041 2.21975 8.04762H2.99206V5.36508H1.13624C1.13538 5.33069 1.13494 5.2963 1.13492 5.2619C1.13492 2.98629 2.98629 1.13492 5.2619 1.13492C7.53752 1.13492 9.38889 2.98629 9.38889 5.2619C9.38889 5.29638 9.38845 5.33077 9.38757 5.36508H7.53175V8.04762H8.30406C7.91811 8.47041 7.44822 8.80807 6.9244 9.03901C6.40059 9.26996 5.83437 9.38912 5.2619 9.38889Z" fill="#939393"/>
</svg>
