<?xml version="1.0" encoding="UTF-8"?>
<!DOCTYPE svg PUBLIC "-//W3C//DTD SVG 1.1//EN" "http://www.w3.org/Graphics/SVG/1.1/DTD/svg11.dtd">
<!-- Creator: CorelDRAW X7 -->
<svg xmlns="http://www.w3.org/2000/svg" xml:space="preserve" width="144.027mm" height="39.3785mm" version="1.1" style="shape-rendering:geometricPrecision; text-rendering:geometricPrecision; image-rendering:optimizeQuality; fill-rule:evenodd; clip-rule:evenodd"
viewBox="0 0 8967 2452"
 xmlns:xlink="http://www.w3.org/1999/xlink">
 <defs>
  <style type="text/css">
   <![CDATA[
    .fil0 {fill:#797979}
   ]]>
  </style>
 </defs>
 <g id="Layer_x0020_1">
  <metadata id="CorelCorpID_0Corel-Layer"/>
  <path class="fil0" d="M1311 2452c-389,-7 -701,-125 -955,-379 -255,-256 -381,-568 -352,-932 36,-448 268,-772 654,-985 190,-105 392,-156 601,-156 70,0 141,5 212,17 422,65 750,279 949,662 212,409 187,818 -64,1203 -201,308 -493,484 -851,548 -75,13 -151,17 -194,22zm732 -544c15,11 2,43 32,38 1,18 1,18 -44,36 2,6 5,12 8,20 -7,-2 -13,-3 -19,-4 -11,43 -69,88 -118,86 -37,-1 -74,-12 -112,-17 -18,-2 -38,-6 -55,-2 -72,19 -145,21 -219,19 -39,-2 -65,-33 -64,-76 -15,8 -28,14 -42,21 -1,-2 -3,-3 -4,-5 8,-5 17,-10 25,-15 -2,-3 -3,-5 -5,-8 -14,-4 -29,-9 -44,-14 0,-9 0,-18 0,-30 7,5 12,10 17,14 1,-14 3,-28 4,-45 14,7 22,14 31,16 24,6 47,7 65,-17 18,-25 42,-47 61,-72 8,-11 13,-26 15,-40 4,-35 4,-71 7,-107 1,-15 2,-31 5,-46 4,-20 15,-35 35,-42 13,-4 26,-10 38,-16 47,-25 53,-34 30,-79 -17,-33 -9,-64 -6,-95 3,-32 27,-46 62,-46 31,1 49,16 52,47 3,26 2,53 0,79 -1,12 -10,23 -16,35 -11,21 -4,37 15,48 15,9 30,18 47,23 36,11 48,38 51,73 3,43 5,85 10,127 5,51 48,76 77,111 10,11 37,2 61,-17l0 0zm-406 -86c0,59 -51,82 -83,118 15,5 68,-3 70,-12 9,-34 26,-68 13,-106l0 0zm312 136c-37,-29 -67,-53 -97,-77 1,7 2,17 4,27 2,9 5,24 11,26 24,9 50,15 82,24l0 0zm-1521 -82c9,5 18,10 27,16 25,15 51,15 75,-3 53,-40 106,-34 163,-7 36,16 73,31 111,40 18,5 42,-1 59,-9 39,-19 75,-35 118,-17 29,13 54,4 74,-20 5,-5 10,-9 19,-16 -3,38 -11,69 -36,93 -16,15 -34,21 -55,10 -31,-15 -58,-15 -88,8 -54,41 -110,21 -165,-1 -30,-12 -60,-23 -91,-33 -36,-12 -65,-1 -92,25 -38,36 -53,35 -84,-8 -16,-23 -28,-49 -42,-73 3,-2 5,-4 7,-5l0 0zm-3 -70c100,7 169,-57 244,-108 4,-2 8,-10 7,-14 -8,-39 -17,-77 -27,-118 -29,36 -59,74 -89,111 -14,18 -26,37 -41,54 -23,27 -62,19 -75,-15 -6,-17 -2,-32 16,-38 39,-13 71,-34 88,-73 15,-34 33,-67 50,-100 6,-10 13,-19 20,-28 48,-50 47,-57 95,6 12,17 21,36 28,56 20,62 37,124 59,186 4,14 21,30 34,33 18,5 28,-12 32,-31 1,-7 6,-15 11,-19 23,-14 47,-29 72,-40 30,-12 60,-6 84,17 27,27 41,61 33,100 -12,55 -39,69 -94,62 -25,-3 -54,0 -78,9 -58,23 -112,26 -170,-1 -37,-16 -78,-22 -118,-29 -15,-3 -35,3 -48,11 -46,29 -72,29 -115,-5 -7,-6 -13,-12 -20,-18 1,-3 1,-5 2,-8l0 0zm150 -944c-8,14 -12,19 -13,24 -6,27 -25,31 -48,38 -22,8 -40,31 -56,50 -14,17 -22,38 -32,59 -10,22 -20,45 -28,69 -9,24 -41,41 -74,33 4,-9 6,-19 13,-23 42,-27 48,-74 66,-115 4,-8 5,-17 9,-24 44,-69 49,-149 64,-225 5,-24 -8,-55 -21,-78 -21,-34 -43,-64 9,-98 -16,-13 -30,-22 -40,-34 -17,-21 -15,-42 4,-55 21,-16 37,-14 55,9 8,11 16,25 20,39 8,30 9,32 43,30 -9,-18 -19,-39 2,-53 28,-18 46,6 66,26 7,-8 12,-19 21,-23 11,-5 25,-9 38,-9 6,0 15,9 17,16 2,3 -6,12 -11,17 -5,6 -11,10 -16,16 0,3 0,6 0,9 37,7 74,15 108,22 3,-33 3,-58 7,-84 4,-29 27,-23 47,-21 22,2 28,17 27,37 0,14 -2,29 -3,46 12,-2 20,-6 28,-5 14,1 33,-1 42,7 22,20 42,43 59,68 15,24 11,30 -17,41 -4,1 -8,3 -12,4 15,28 28,54 42,81 13,26 26,52 39,79 2,4 7,8 6,11 -11,36 19,42 38,58 13,10 25,24 36,37 27,33 40,77 87,92 16,5 13,24 -2,35 -12,10 -23,20 -34,30 -13,12 -26,24 -45,9 6,-10 14,-20 18,-30 10,-30 -9,-54 -26,-71 -37,-35 -80,-66 -120,-98 -2,-3 -7,-6 -8,-5 -36,20 -43,-18 -60,-29 -16,8 -30,15 -41,21 -4,61 -8,122 -12,184 -1,3 -1,7 -1,10 3,42 3,42 -40,43 -14,0 -28,2 -42,2 -9,0 -18,-4 -27,-6 0,-2 0,-5 0,-7 17,-9 34,-17 51,-27 7,-5 17,-14 17,-20 -2,-59 -3,-118 -9,-176 -2,-19 -4,-36 7,-52 8,-13 12,-27 20,-40 23,-34 15,-66 -7,-96 -13,-18 -29,-33 -41,-51 -28,-39 -74,-37 -112,-54 -15,-7 -32,-13 -50,-20 -6,10 -15,21 -26,37 18,18 38,36 56,56 12,13 25,28 32,44 8,17 5,36 -19,40 -22,3 -46,-13 -43,-34 5,-34 -23,-42 -40,-64 8,58 31,104 71,140 37,33 50,72 42,121 -7,44 -6,89 -13,132 -5,31 4,51 31,64 7,4 13,9 25,17 -39,12 -69,-1 -99,-12 -3,-1 -3,-12 -3,-18 2,-38 5,-76 7,-114 2,-19 4,-38 7,-56 4,-27 -2,-32 -26,-28 -10,2 -22,-2 -29,-8 -11,-10 -19,-24 -31,-40zm1060 244c42,-28 78,-48 109,-74 35,-30 60,-73 111,-84 0,-3 -1,-6 -2,-8 -10,-6 -21,-10 -29,-17 -20,-19 -41,-37 -59,-58 -23,-26 -41,-56 -65,-80 -24,-22 -53,-37 -80,-55 -5,-4 -12,-5 -18,-9 -34,-17 -54,-14 -83,9 -8,7 -17,15 -27,20 -19,10 -36,6 -47,-13 -13,-20 -22,-43 -34,-64 -6,-11 -14,-22 -22,-32 -7,-9 -9,-47 1,-54 22,-14 19,-36 18,-55 -2,-24 -11,-47 -15,-71 -4,-16 -8,-33 -8,-49 1,-36 20,-56 54,-57 36,-1 57,16 62,52 5,32 -6,60 -30,80 -34,26 -41,63 -43,102 0,12 9,25 14,38 10,22 21,44 33,71 15,-20 26,-33 36,-47 12,-17 18,-39 42,-46 5,-2 8,-17 10,-26 1,-9 -1,-19 -2,-24 -15,-14 -32,-25 -44,-40 -4,-5 -1,-23 5,-30 20,-26 65,-31 94,-14 13,8 27,14 46,23 29,-51 61,-102 88,-156 7,-13 0,-33 0,-50 -1,-9 -2,-19 -3,-29 15,-1 16,38 38,11 10,19 21,34 2,54 -8,9 -8,26 -12,40 -5,21 -8,44 -19,62 -21,34 -17,71 -18,107 0,6 3,14 6,19 27,35 54,69 82,104 2,4 4,8 8,10 44,30 62,84 103,117 18,15 21,34 23,55 2,18 3,35 4,54 -19,4 -19,20 -15,35 8,26 -2,43 -24,57 -36,22 -72,45 -107,69 -16,11 -34,22 -47,36 -22,23 -17,41 11,55 7,3 13,7 26,13 -14,6 -22,10 -31,14 12,15 4,25 -13,22 -19,-3 -39,-9 -54,-20 -26,-20 -50,-44 -75,-67l0 0zm-147 -681c0,-35 -20,-64 -44,-64 -25,0 -44,27 -44,64 0,2 0,3 0,5 1,34 20,58 44,59 22,0 41,-24 44,-56 0,-3 0,-5 0,-8l0 0zm974 809c9,-669 -587,-1145 -1143,-1138 0,379 0,758 0,1138 382,0 762,0 1143,0zm-1217 -1141c-657,10 -1170,557 -1149,1141 382,0 765,0 1149,0 0,-381 0,-760 0,-1141zm0 1214c-384,0 -765,0 -1150,0 30,314 164,570 401,770 216,183 467,273 749,283 0,-353 0,-702 0,-1053zm75 0c0,351 0,701 0,1054 362,-21 664,-160 896,-442 145,-177 226,-381 244,-612 -382,0 -761,0 -1140,0z"/>
  <path class="fil0" d="M8431 1612l-68 0 0 266c0,35 -8,61 -26,77 -18,17 -41,25 -70,25 -31,0 -54,-8 -71,-26 -17,-17 -26,-42 -26,-76l0 -636c0,-37 10,-63 28,-79 19,-16 49,-24 91,-24l314 0c43,0 80,1 111,5 30,3 58,9 83,19 30,11 56,27 79,47 23,20 40,44 52,71 12,27 18,55 18,85 0,62 -20,111 -60,148 -40,37 -101,63 -182,79 34,15 67,39 98,70 31,30 59,63 84,98 24,35 43,66 57,94 13,28 20,48 20,58 0,11 -4,22 -12,33 -8,10 -19,19 -33,25 -14,6 -30,9 -48,9 -21,0 -40,-4 -54,-13 -15,-9 -28,-20 -38,-34 -11,-13 -25,-33 -44,-59l-77 -112c-28,-41 -52,-72 -74,-94 -22,-21 -44,-36 -67,-44 -22,-8 -51,-12 -85,-12l0 0zm110 -347l-178 0 0 227 173 0c47,0 86,-3 117,-10 32,-7 56,-19 73,-36 16,-17 25,-40 25,-69 0,-23 -7,-43 -20,-61 -14,-17 -33,-30 -56,-39 -23,-8 -67,-12 -134,-12l0 0zm-629 3l-435 0 0 203 400 0c30,0 52,6 66,17 15,12 22,27 22,46 0,19 -7,34 -21,46 -15,12 -37,18 -67,18l-400 0 0 235 450 0c30,0 53,6 68,18 16,13 23,29 23,49 0,20 -7,36 -23,48 -15,12 -38,18 -68,18l-525 0c-42,0 -72,-8 -90,-24 -19,-16 -28,-43 -28,-79l0 -621c0,-24 4,-44 12,-59 9,-16 21,-27 39,-34 18,-7 40,-10 67,-10l510 0c30,0 53,6 68,18 15,12 23,27 23,46 0,20 -8,35 -23,47 -15,12 -38,18 -68,18l0 0zm-1388 -43l371 488 0 -492c0,-32 8,-56 24,-72 16,-16 37,-24 64,-24 28,0 50,8 66,24 16,16 24,40 24,72l0 650c0,73 -35,109 -104,109 -18,0 -33,-2 -47,-6 -14,-5 -27,-11 -39,-21 -12,-9 -23,-20 -34,-33 -10,-12 -21,-25 -31,-39l-362 -481 0 484c0,32 -8,56 -25,72 -17,16 -39,24 -65,24 -28,0 -49,-8 -66,-24 -16,-17 -25,-40 -25,-72l0 -638c0,-27 4,-48 11,-64 8,-17 22,-30 41,-41 19,-11 39,-16 62,-16 17,0 32,2 44,7 12,5 23,12 33,20 9,8 18,19 28,32 10,13 20,27 30,41l0 0zm-660 653l0 -652c0,-34 9,-59 27,-76 18,-17 40,-25 69,-25 29,0 52,8 70,25 18,17 27,42 27,76l0 652c0,34 -9,60 -27,77 -18,17 -41,25 -70,25 -28,0 -51,-8 -69,-25 -18,-18 -27,-43 -27,-77l0 0zm-355 -6l-46 -103 -387 0 -46 106c-17,41 -33,69 -45,83 -13,15 -33,22 -62,22 -24,0 -46,-8 -64,-23 -19,-15 -28,-33 -28,-52 0,-12 2,-23 6,-35 5,-12 12,-29 22,-51l243 -537c7,-15 16,-34 26,-55 9,-22 20,-40 31,-54 11,-15 25,-26 43,-35 18,-9 40,-13 67,-13 27,0 49,4 67,13 18,9 33,20 44,34 11,14 20,29 28,45 7,16 17,37 29,64l248 534c20,41 30,70 30,88 0,20 -10,37 -28,53 -18,16 -41,24 -67,24 -15,0 -28,-2 -39,-7 -10,-5 -19,-11 -27,-19 -7,-8 -15,-21 -24,-37 -8,-17 -15,-32 -21,-45l0 0zm-382 -229l284 0 -143 -342 -141 342zm-926 -31l-67 0 0 266c0,35 -9,61 -27,77 -18,17 -41,25 -70,25 -30,0 -54,-8 -71,-26 -17,-17 -25,-42 -25,-76l0 -636c0,-37 9,-63 28,-79 18,-16 48,-24 90,-24l314 0c43,0 80,1 111,5 31,3 58,9 83,19 30,11 56,27 79,47 23,20 41,44 53,71 12,27 17,55 17,85 0,62 -20,111 -60,148 -40,37 -100,63 -182,79 34,15 67,39 98,70 31,30 59,63 84,98 24,35 43,66 57,94 14,28 20,48 20,58 0,11 -4,22 -12,33 -8,10 -19,19 -32,25 -14,6 -30,9 -49,9 -21,0 -39,-4 -54,-13 -15,-9 -28,-20 -38,-34 -11,-13 -25,-33 -43,-59l-78 -112c-27,-41 -52,-72 -74,-94 -22,-21 -44,-36 -67,-44 -22,-8 -51,-12 -85,-12l0 0zm111 -347l-178 0 0 227 172 0c47,0 86,-3 117,-10 32,-7 56,-19 73,-36 17,-17 25,-40 25,-69 0,-23 -7,-43 -20,-61 -14,-17 -32,-30 -56,-39 -23,-8 -67,-12 -133,-12l0 0zm-583 12l-211 0 0 601c0,35 -9,60 -26,77 -18,17 -41,25 -69,25 -29,0 -52,-8 -70,-25 -18,-17 -27,-43 -27,-77l0 -601 -211 0c-33,0 -57,-6 -73,-19 -16,-12 -24,-29 -24,-50 0,-21 8,-38 25,-51 16,-12 41,-18 72,-18l614 0c33,0 58,6 74,19 16,13 25,30 25,50 0,21 -9,38 -25,50 -17,13 -41,19 -74,19l0 0zm5175 -720l-259 0 0 121 238 0c18,0 31,3 40,10 8,7 13,16 13,27 0,11 -5,21 -13,28 -9,7 -22,10 -40,10l-238 0 0 140 268 0c18,0 31,4 41,11 8,7 13,17 13,28l0 1 0 0 0 1 0 0c0,12 -5,21 -13,28 -10,7 -23,11 -41,11l-313 0c-25,0 -43,-5 -54,-15 -11,-9 -16,-25 -16,-46l0 -371c0,-14 2,-26 7,-35 5,-9 13,-16 23,-20 11,-4 24,-6 40,-6l304 0c18,0 32,3 41,11 9,7 13,16 13,27 0,12 -4,21 -13,28 -9,7 -23,11 -41,11l0 0zm-501 5l-126 0 0 358c0,21 -5,36 -15,46 -11,10 -25,15 -41,15 -18,0 -31,-5 -42,-15 -11,-10 -16,-25 -16,-46l0 -358 -126 0c-19,0 -34,-3 -43,-11 -10,-7 -15,-17 -15,-30 0,-12 5,-23 15,-30 10,-7 25,-11 43,-11l366 0c20,0 34,4 44,11 10,8 15,18 15,30 0,13 -5,23 -15,30 -10,8 -25,11 -44,11l0 0zm-506 355l-27 -62 -231 0 -27 63c-11,25 -20,42 -27,50 -8,9 -20,13 -37,13 -14,0 -27,-4 -38,-14 -11,-9 -17,-19 -17,-31 0,-7 1,-14 4,-21 3,-7 7,-17 13,-30l145 -320c4,-9 9,-20 15,-33 6,-13 12,-23 18,-32 7,-8 16,-15 26,-21 11,-5 24,-7 40,-7 16,0 29,2 40,7 11,6 19,12 26,21 7,8 12,17 17,27 4,9 10,22 17,38l148 318c12,24 18,41 18,52 0,12 -6,22 -17,32 -11,9 -24,14 -40,14 -9,0 -16,-1 -23,-4 -6,-3 -12,-7 -16,-11 -4,-5 -9,-13 -14,-23 -5,-10 -10,-18 -13,-26zm-228 -137l170 0 -86 -203 -84 203zm-556 -243l128 331 129 -333c7,-18 12,-30 15,-37 3,-7 9,-13 17,-18 7,-6 18,-8 31,-8 10,0 19,2 28,6 8,4 15,10 19,17 5,7 8,14 8,21 0,5 -1,11 -3,16 -1,6 -3,12 -5,17 -3,6 -5,11 -7,17l-138 322c-5,12 -10,24 -15,35 -5,11 -10,21 -17,29 -6,9 -15,16 -25,21 -11,5 -24,8 -40,8 -15,0 -28,-2 -39,-8 -11,-5 -19,-12 -26,-21 -6,-8 -12,-18 -17,-29 -5,-11 -10,-23 -15,-35l-135 -319c-2,-6 -5,-12 -7,-17 -3,-6 -5,-12 -6,-19 -2,-6 -3,-12 -3,-16 0,-12 5,-22 16,-31 11,-10 24,-14 40,-14 20,0 33,5 42,15 8,11 16,27 25,50l0 0zm-328 383l0 -388c0,-20 5,-35 16,-45 10,-10 24,-15 41,-15 17,0 31,5 42,14 11,10 16,26 16,46l0 388c0,21 -5,36 -16,46 -11,10 -25,15 -42,15 -17,0 -30,-5 -41,-15 -11,-10 -16,-26 -16,-46l0 0zm-420 -158l-41 0 0 158c0,21 -5,37 -16,46 -10,10 -24,15 -41,15 -18,0 -32,-5 -43,-15 -10,-11 -15,-26 -15,-46l0 -379c0,-21 6,-37 17,-47 11,-9 29,-14 54,-14l187 0c26,0 48,1 66,3 18,2 35,6 50,11 17,7 33,16 47,28 13,12 24,26 31,42 7,17 11,33 11,51 0,37 -12,67 -36,89 -24,21 -60,37 -109,46 21,10 40,24 59,42 18,18 35,38 49,59 15,20 26,39 35,56 8,16 12,28 12,34 0,7 -3,13 -8,19 -4,7 -11,12 -19,16 -8,3 -18,5 -29,5 -13,0 -23,-2 -32,-8 -9,-5 -17,-12 -23,-20 -6,-8 -15,-20 -26,-35l-46 -67c-16,-24 -31,-43 -44,-56 -13,-12 -26,-21 -40,-26 -13,-5 -30,-7 -50,-7l0 0zm65 -207l-106 0 0 135 103 0c28,0 51,-2 70,-6 19,-4 33,-11 43,-21 10,-10 15,-24 15,-41 0,-14 -4,-26 -12,-36 -8,-11 -19,-19 -33,-24 -14,-5 -40,-7 -80,-7zm-528 226l-106 0 0 139c0,20 -5,35 -16,46 -11,10 -24,15 -41,15 -17,0 -31,-5 -42,-15 -10,-10 -16,-25 -16,-45l0 -380c0,-22 6,-38 18,-47 11,-9 30,-14 55,-14l148 0c43,0 77,3 100,9 23,5 43,15 60,28 17,13 30,28 39,47 9,19 13,40 13,64 0,50 -18,88 -53,114 -36,26 -89,39 -159,39l0 0zm-28 -226l-78 0 0 151 78 0c27,0 49,-3 68,-8 18,-5 32,-13 41,-24 10,-11 15,-26 15,-44 0,-22 -8,-40 -22,-53 -17,-15 -51,-22 -102,-22l0 0zm-760 365l0 -156 -138 -187c-13,-16 -21,-29 -26,-39 -5,-9 -8,-17 -8,-24 0,-12 5,-22 16,-30 10,-8 22,-12 37,-12 16,0 28,3 36,11 8,8 20,23 37,46l106 150 107 -150c6,-9 12,-17 16,-23 5,-6 9,-12 15,-17 5,-6 11,-10 17,-13 7,-3 15,-4 24,-4 14,0 27,4 36,12 10,8 15,17 15,28 0,9 -3,18 -8,26 -5,9 -13,21 -25,37l-142 189 0 156c0,21 -5,36 -16,46 -11,10 -25,15 -42,15 -17,0 -30,-5 -41,-15 -11,-10 -16,-25 -16,-46l0 0zm-595 -22l-91 -314 0 341c0,19 -5,33 -15,42 -9,9 -22,14 -38,14 -16,0 -28,-4 -38,-14 -10,-9 -15,-23 -15,-42l0 -390c0,-22 7,-36 19,-44 13,-7 31,-11 53,-11l35 0c22,0 37,2 47,5 10,3 17,9 21,18 5,9 10,23 16,43l83 270 82 -270c6,-20 11,-34 16,-43 5,-9 12,-15 22,-18 9,-3 25,-5 46,-5l36 0c22,0 39,4 52,11 13,8 19,22 19,44l0 390c0,19 -4,33 -14,42 -10,9 -23,14 -39,14 -15,0 -28,-5 -38,-14 -9,-9 -14,-23 -14,-42l0 -341 -91 314c-6,21 -11,36 -15,45 -3,10 -10,19 -20,26 -10,8 -24,12 -42,12 -14,0 -25,-2 -34,-7 -10,-5 -17,-12 -22,-20 -5,-8 -9,-16 -12,-26 -3,-9 -6,-19 -9,-30l0 0zm-545 -341l-259 0 0 121 239 0c17,0 30,3 39,10 8,7 13,16 13,27 0,11 -4,21 -13,28 -8,7 -22,10 -39,10l-239 0 0 140 268 0c18,0 32,4 41,11 9,8 14,17 14,29 0,12 -5,22 -14,29 -9,7 -23,11 -41,11l-312 0c-25,0 -43,-5 -54,-15 -11,-9 -17,-25 -17,-46l0 -371c0,-14 3,-26 7,-35 5,-9 13,-16 23,-20 11,-4 24,-6 41,-6l303 0c18,0 32,3 41,11 9,7 13,16 13,27 0,12 -4,21 -13,28 -9,7 -23,11 -41,11zm-702 416l-173 0c-25,0 -43,-5 -54,-15 -11,-10 -16,-25 -16,-46l0 -371c0,-22 6,-37 17,-47 10,-9 28,-14 53,-14l184 0c27,0 50,1 70,4 20,3 38,9 54,17 13,7 25,16 35,27 10,10 18,22 24,35 5,13 8,26 8,41 0,49 -29,85 -85,108 74,21 112,61 112,120 0,28 -9,53 -25,75 -16,22 -38,38 -66,49 -17,6 -37,10 -59,13 -23,2 -49,4 -79,4l0 0zm-128 -418l0 127 105 0c29,0 51,-2 67,-7 15,-4 27,-13 36,-27 6,-9 9,-20 9,-31 0,-25 -10,-42 -30,-50 -21,-8 -52,-12 -94,-12l-93 0zm120 199l-120 0 0 144 124 0c77,0 116,-25 116,-73 0,-25 -10,-43 -30,-54 -20,-11 -50,-17 -90,-17l0 0z"/>
 </g>
</svg>
