<svg width="24" height="30" viewBox="0 0 24 30" fill="none" xmlns="http://www.w3.org/2000/svg">
<path d="M7.81317 27.625C7.7596 27.5941 7.70593 27.5628 7.65202 27.531C5.99211 26.553 4.56763 25.0682 3.41827 23.1178C2.51577 21.5864 1.77602 19.7569 1.21965 17.6804C-0.0482264 12.9488 0.174778 9.01879 1.88245 5.99979C2.96465 4.0865 4.77989 1.442 8.03517 0.569713C9.30716 0.228883 10.5721 0.361375 11.5968 0.942785L11.624 0.958331L11.631 0.962408C12.8659 1.67537 13.6225 3.01305 13.6054 4.45521L13.5862 6.08099L13.5838 6.11226C13.5128 7.0449 13.3605 7.70488 13.0902 8.25219C12.7035 9.03514 12.0828 9.54752 11.2453 9.77524L8.18238 10.6552C8.01234 11.6074 7.76045 13.727 8.34411 15.9147C8.92533 18.0743 10.1754 19.7266 10.7999 20.4532L13.8718 19.5686C14.7202 19.3422 15.5069 19.4544 16.209 19.9016C16.7485 20.2452 17.2249 20.7673 17.7539 21.5941L17.7711 21.6222L18.5846 22.9935C19.3218 24.2363 19.3342 25.7765 18.6167 27.0132L18.5994 27.0428C18.0046 28.0555 16.9754 28.8027 15.7034 29.1435C14.2897 29.5223 12.7909 29.5081 11.2489 29.1012C10.1609 28.8141 9.03533 28.3307 7.81317 27.625ZM10.6539 2.65346C10.6527 2.65277 10.6516 2.65211 10.6504 2.65143L10.6326 2.64126C10.0572 2.3148 9.31412 2.24898 8.54069 2.45622C5.99457 3.13845 4.49148 5.3541 3.5824 6.96129C2.13574 9.51893 1.97548 12.9553 3.10611 17.1748C4.24848 21.4383 6.11153 24.3565 8.64345 25.8483C10.2286 26.7823 12.6326 27.9443 15.1979 27.2569C15.9714 27.0497 16.582 26.6212 16.9173 26.0504L16.9292 26.03C17.2901 25.4077 17.2815 24.6248 16.9049 23.9899L16.1 22.633C15.2754 21.3486 14.8334 21.3349 14.384 21.4533L10.2169 22.6535L9.81076 22.2603C9.71236 22.165 7.39038 19.8878 6.4579 16.421L6.45742 16.4192C5.53383 12.9589 6.3689 9.76071 6.40488 9.62621L6.54774 9.09275L10.7292 7.89166C11.1194 7.78668 11.5105 7.55314 11.6341 5.99446L11.6526 4.43214C11.6611 3.69531 11.2786 3.01413 10.6539 2.65346ZM23.4621 11.7563C22.652 8.73287 20.7129 6.2059 18.0022 4.64087L17.0257 6.33226C21.6889 9.02454 23.2923 15.0087 20.6 19.6718L22.2914 20.6483C23.8565 17.9376 24.2722 14.7797 23.4621 11.7563ZM14.0962 11.4064L13.1196 13.0978C14.0523 13.6362 14.373 14.8331 13.8345 15.7657L15.5259 16.7422C16.6028 14.8769 15.9614 12.4833 14.0962 11.4064ZM16.0492 8.02361L15.0727 9.715C17.8706 11.3304 18.8326 14.9208 17.2173 17.7187L18.9087 18.6953C21.0625 14.9647 19.7798 10.1775 16.0492 8.02361Z" fill="black"/>
</svg>
