<svg width="21" height="20" viewBox="0 0 21 20" fill="none" xmlns="http://www.w3.org/2000/svg">
<path d="M19.8234 7.43566L19.8234 7.43582C19.8331 7.46532 19.8258 7.49898 19.8008 7.52305L19.8008 7.52307L15.2406 11.9174L15.0495 12.1015L15.0949 12.3629L16.1714 18.5678C16.1767 18.5981 16.1646 18.6312 16.1354 18.6522C16.1189 18.664 16.0986 18.6706 16.077 18.6706C16.0608 18.6706 16.0449 18.6668 16.0305 18.6594L10.3944 15.7298L10.1638 15.6099L9.93318 15.7298L4.29686 18.6594C4.26311 18.6769 4.22197 18.6737 4.19191 18.6521C4.1627 18.6311 4.15072 18.5981 4.15597 18.5678L5.23222 12.3629L5.27755 12.1015L5.08654 11.9174L0.526811 7.52309L0.526765 7.52305C0.501893 7.49908 0.494402 7.46541 0.50418 7.43566L0.504215 7.43556C0.514105 7.40544 0.542228 7.37939 0.580918 7.37384L0.581002 7.37383L6.88251 6.46842L7.14176 6.43118L7.25874 6.19684L10.0771 0.551514L10.0771 0.551474C10.0918 0.522097 10.1243 0.5 10.1638 0.5C10.2033 0.5 10.2358 0.52208 10.2505 0.551474L10.2505 0.551503L13.0687 6.19687L13.1857 6.43122L13.445 6.46846L19.7466 7.37383L19.7467 7.37384C19.7853 7.37938 19.8134 7.40533 19.8234 7.43566Z" stroke="#FED42D"/>
</svg>
