<svg width="25" height="26" viewBox="0 0 25 26" fill="none" xmlns="http://www.w3.org/2000/svg">
<path d="M15.2912 10.1831L11.533 13.7328L9.72931 11.8772C9.52935 11.6713 9.2001 11.6667 8.99444 11.8666C8.78858 12.0668 8.7839 12.3958 8.98385 12.6017L11.1471 14.8224C11.3481 15.0246 11.6729 15.0315 11.8822 14.8378L16.0159 10.9389C16.1163 10.8442 16.1749 10.7135 16.1788 10.5757C16.1826 10.4378 16.1315 10.304 16.0367 10.2038C15.8355 9.99473 15.5038 9.98557 15.2912 10.1831Z" fill="black"/>
<path d="M12.5025 4.72015C8.20734 4.72015 4.71484 8.21265 4.71484 12.5078C4.71484 16.8032 8.20734 20.2957 12.5025 20.2957C16.7979 20.2957 20.2904 16.8032 20.2904 12.5078C20.2904 8.21265 16.7979 4.72015 12.5025 4.72015ZM12.5025 19.2531C8.78074 19.2531 5.75738 16.2245 5.75738 12.5078C5.75738 8.79114 8.78074 5.76269 12.5025 5.76269C16.2279 5.76269 19.2478 8.78258 19.2478 12.5078C19.2478 16.2331 16.2279 19.2531 12.5025 19.2531Z" fill="black"/>
<path d="M23.2199 9.64086L23.392 6.5497C23.404 6.34221 23.2912 6.14735 23.1053 6.0545L20.3529 4.66275L18.9612 1.91042C18.8665 1.72614 18.6729 1.61395 18.466 1.62372L15.3695 1.79069L12.7892 0.0859787C12.6154 -0.0286596 12.3899 -0.0286596 12.2158 0.0859787L9.63557 1.79069L6.54461 1.61863C6.33692 1.60641 6.14226 1.71922 6.04941 1.90533L4.65746 4.65766L1.90533 6.04941C1.72085 6.14389 1.60886 6.33753 1.61863 6.54461L1.79048 9.63577L0.0859787 12.2161C-0.0286596 12.3899 -0.0286596 12.6153 0.0859787 12.7894L1.78539 15.3748L1.61334 18.466C1.60132 18.6735 1.71392 18.8683 1.90003 18.9612L4.65237 20.3529L6.04411 23.1053C6.13859 23.2897 6.33224 23.4017 6.53932 23.392L9.63048 23.2199L12.2108 24.9244C12.3836 25.0427 12.6113 25.0427 12.7842 24.9244L15.3644 23.2199L18.4556 23.392C18.6631 23.404 18.8577 23.2912 18.9508 23.1053L20.3425 20.3529L23.0949 18.9612C23.2792 18.8665 23.3913 18.6731 23.3816 18.466L23.2095 15.3748L24.914 12.7945C25.0287 12.6206 25.0287 12.395 24.914 12.2211L23.2199 9.64086ZM22.2503 14.9474C22.1867 15.0407 22.1572 15.1529 22.167 15.2655L22.3284 18.1897L19.7274 19.5032C19.6282 19.5529 19.5478 19.6335 19.4981 19.7327L18.1844 22.3337L15.2602 22.1723C15.1482 22.1682 15.0376 22.1971 14.9421 22.2556L12.5025 23.8664L10.0632 22.2556C9.97847 22.1983 9.87869 22.1674 9.77648 22.167H9.75041L6.82602 22.3287L5.51246 19.7274C5.46278 19.6282 5.38235 19.5478 5.28298 19.4981L2.67664 18.1897L2.83832 15.2655C2.84239 15.1535 2.81327 15.0429 2.75483 14.9474L1.14419 12.5078L2.75483 10.0683C2.81856 9.97521 2.84809 9.86281 2.83832 9.75041L2.67664 6.82602L5.27789 5.51246C5.37705 5.46278 5.45748 5.38235 5.50717 5.28318L6.82072 2.68193L9.74512 2.84361C9.85691 2.84748 9.96747 2.81856 10.0632 2.76012L12.5025 1.14949L14.9421 2.76012C15.0354 2.82386 15.1478 2.85338 15.2602 2.84361L18.1844 2.68193L19.4981 5.28318C19.5478 5.38235 19.6282 5.46278 19.7274 5.51246L22.3284 6.82602L22.167 9.75041C22.1629 9.8622 22.192 9.97276 22.2503 10.0683L23.8611 12.5078L22.2503 14.9474Z" fill="black"/>
</svg>
