<svg width="17" height="20" viewBox="0 0 17 20" fill="none" xmlns="http://www.w3.org/2000/svg">
<path d="M12.9828 9.19899C12.891 8.99613 12.6892 8.86693 12.4671 8.86693H10.2004V1.50026C10.2004 1.18746 9.94658 0.933594 9.63378 0.933594H7.36711C7.05431 0.933594 6.80044 1.18746 6.80044 1.50026V8.86693H4.53378C4.31164 8.86693 4.10991 8.99726 4.01811 9.19899C3.92518 9.40186 3.96144 9.63873 4.10764 9.80646L8.07431 14.3398C8.18198 14.4633 8.33724 14.5336 8.50044 14.5336C8.66364 14.5336 8.81891 14.4622 8.92658 14.3398L12.8932 9.80646C13.0406 9.63986 13.0746 9.40186 12.9828 9.19899Z" fill="black"/>
<path d="M14.7333 13.4004V16.8004H2.26667V13.4004H0V17.9337C0 18.5605 0.507733 19.0671 1.13333 19.0671H15.8667C16.4934 19.0671 17 18.5605 17 17.9337V13.4004H14.7333Z" fill="black"/>
</svg>
