<svg width="20" height="12" viewBox="0 0 20 12" fill="none" xmlns="http://www.w3.org/2000/svg">
<g clip-path="url(#clip0_0_538)">
<path d="M18.5634 0.757059C18.694 0.320588 18.5634 0 17.9405 0H15.8817C15.3581 0 15.117 0.277059 14.9864 0.582353C14.9864 0.582353 13.9393 3.13412 12.4558 4.79235C11.9764 5.27177 11.7575 5.42471 11.4964 5.42471C11.3652 5.42471 11.1687 5.27176 11.1687 4.83588V0.757059C11.1687 0.232941 11.024 0 10.5875 0H7.35225C7.02519 0 6.82813 0.242941 6.82813 0.473529C6.82813 0.969412 7.5699 1.08412 7.64637 2.48V5.51177C7.64637 6.17647 7.52637 6.29706 7.2646 6.29706C6.56637 6.29706 4.86872 3.73353 3.86166 0.800588C3.6646 0.230588 3.46696 0 2.94049 0H0.881664C0.293428 0 0.175781 0.277059 0.175781 0.582353C0.175781 1.12765 0.874016 3.83235 3.42578 7.40941C5.12696 9.85235 7.52402 11.1765 9.70519 11.1765C11.014 11.1765 11.1758 10.8824 11.1758 10.3759V8.52941C11.1758 7.94118 11.2999 7.82412 11.714 7.82412C12.0199 7.82412 12.5428 7.97706 13.764 9.15471C15.1599 10.5506 15.3905 11.1765 16.1758 11.1765H18.2346C18.8228 11.1765 19.117 10.8824 18.9475 10.3024C18.7623 9.72353 18.0952 8.88471 17.2111 7.88941C16.7311 7.32176 16.0117 6.71118 15.7934 6.40647C15.4875 6.01353 15.5752 5.83941 15.7934 5.49C15.7934 5.49 18.3011 1.95647 18.5634 0.757059Z" fill="#4A76A8"/>
</g>
<defs>
<clipPath id="clip0_0_538">
<rect width="20" height="11.1765" fill="white"/>
</clipPath>
</defs>
</svg>
