<svg width="15" height="16" viewBox="0 0 15 16" fill="none" xmlns="http://www.w3.org/2000/svg">
<path d="M11.4555 7.293C11.3745 7.114 11.1965 7 11.0005 7H9.00055V0.5C9.00055 0.224 8.77655 0 8.50055 0H6.50055C6.22455 0 6.00055 0.224 6.00055 0.5V7H4.00055C3.80455 7 3.62655 7.115 3.54555 7.293C3.46355 7.472 3.49555 7.681 3.62455 7.829L7.12455 11.829C7.21955 11.938 7.35655 12 7.50055 12C7.64455 12 7.78155 11.937 7.87655 11.829L11.3765 7.829C11.5065 7.682 11.5365 7.472 11.4555 7.293Z" fill="white"/>
<path d="M13 11V14H2V11H0V15C0 15.553 0.448 16 1 16H14C14.553 16 15 15.553 15 15V11H13Z" fill="white"/>
</svg>
