<svg width="13" height="13" viewBox="0 0 13 13" fill="none" xmlns="http://www.w3.org/2000/svg">
<path d="M6.52539 5.33203C5.89535 5.33203 5.38281 5.84457 5.38281 6.47461C5.38281 7.10465 5.89535 7.61719 6.52539 7.61719C7.15543 7.61719 7.66797 7.10465 7.66797 6.47461C7.66797 5.84457 7.15543 5.33203 6.52539 5.33203Z" fill="#939393"/>
<path d="M6.47461 0C2.90443 0 0 2.90443 0 6.47461C0 10.0448 2.90443 13 6.47461 13C10.0448 13 13 10.0448 13 6.47461C13 2.90443 10.0448 0 6.47461 0ZM9.19141 8.37891C8.67666 8.37891 8.2227 8.12091 7.94683 7.72901C7.59764 8.12426 7.09297 8.37891 6.52539 8.37891C5.47541 8.37891 4.62109 7.52459 4.62109 6.47461C4.62109 5.42463 5.47541 4.57031 6.52539 4.57031C6.95571 4.57031 7.34871 4.71923 7.66797 4.9609V4.95117C7.66797 4.74066 7.83831 4.57031 8.04883 4.57031C8.25934 4.57031 8.42969 4.74066 8.42969 4.95117C8.42969 5.7982 8.42969 6.00806 8.42969 6.85547C8.42969 7.27538 8.7715 7.61719 9.19141 7.61719C9.61132 7.61719 9.95312 7.27538 9.95312 6.85547C9.95312 4.30648 8.26637 3.04688 6.52539 3.04688C4.63524 3.04688 3.09766 4.58446 3.09766 6.47461C3.09766 8.36476 4.63524 9.90234 6.52539 9.90234C7.28711 9.90234 8.00754 9.65837 8.60897 9.19641C9.0107 8.88974 9.47073 9.49513 9.07314 9.80043C8.33709 10.3654 7.45634 10.6641 6.52539 10.6641C4.21533 10.6641 2.33594 8.78467 2.33594 6.47461C2.33594 4.16455 4.21533 2.28516 6.52539 2.28516C8.6302 2.28516 10.7148 3.83741 10.7148 6.85547C10.7148 7.69567 10.0316 8.37891 9.19141 8.37891Z" fill="#939393"/>
</svg>
