<svg width="25" height="25" viewBox="0 0 25 25" fill="none" xmlns="http://www.w3.org/2000/svg">
<path d="M21.3389 3.6612C18.978 1.30025 15.8389 0 12.5 0C9.16107 0 6.02214 1.30025 3.66115 3.6612C1.30025 6.02214 0 9.16117 0 12.5C0 15.8389 1.30025 18.978 3.6612 21.3389C6.02214 23.6998 9.16117 25.0001 12.5 25.0001C14.5713 25.0001 16.6235 24.4828 18.4346 23.5041C18.8 23.3067 18.9361 22.8504 18.7386 22.485C18.5413 22.1197 18.0851 21.9835 17.7196 22.1809C16.1274 23.0413 14.3225 23.4961 12.5 23.4961C6.43679 23.4961 1.50396 18.5633 1.50396 12.5C1.50396 6.43679 6.43679 1.50401 12.5 1.50401C18.5633 1.50401 23.496 6.43684 23.496 12.5C23.496 13.9351 23.1475 15.6424 22.8346 16.2774C22.5572 16.8403 21.7711 17.6332 20.8922 17.6332C19.7546 17.6332 18.829 16.7077 18.829 15.57V7.64085C18.829 7.22556 18.4923 6.88884 18.077 6.88884C17.6617 6.88884 17.325 7.22552 17.325 7.64085V8.40921C16.1631 7.04099 14.4314 6.17107 12.5 6.17107C9.01024 6.17107 6.17102 9.01024 6.17102 12.5C6.17102 15.9898 9.01014 18.829 12.5 18.829C14.4941 18.829 16.2755 17.9017 17.4364 16.4559C17.8314 17.9957 19.2309 19.1372 20.8922 19.1372C22.3429 19.1372 23.6462 18.0329 24.1837 16.9422C24.6415 16.0132 25 14.0621 25 12.5001C25 9.16117 23.6998 6.02214 21.3389 3.6612ZM12.5 17.325C9.83954 17.325 7.67503 15.1606 7.67503 12.5C7.67503 9.83954 9.83949 7.67508 12.5 7.67508C15.1605 7.67508 17.325 9.83954 17.325 12.5C17.325 15.1606 15.1605 17.325 12.5 17.325Z" fill="black"/>
</svg>
