<svg width="25" height="26" viewBox="0 0 25 26" fill="none" xmlns="http://www.w3.org/2000/svg">
<path d="M16.4171 0C11.6844 0 7.834 3.85037 7.834 8.58305C7.834 9.63519 8.02094 10.6576 8.39006 11.6286L0.183218 19.836C0.065917 19.9534 0 20.1124 0 20.2783V24.7692C0 25.1146 0.280036 25.3947 0.625492 25.3947H4.32637C4.49208 25.3947 4.65099 25.3289 4.76829 25.2118L6.01546 23.9666C6.13301 23.8492 6.19902 23.6899 6.19902 23.5239V21.9925H7.72851C8.07396 21.9925 8.354 21.7124 8.354 21.367V20.7539H8.96709C9.3125 20.7539 9.59258 20.4739 9.59258 20.1284V18.7825H10.9385C11.1044 18.7825 11.2634 18.7166 11.3808 18.5993L13.3707 16.6093C14.3418 16.9788 15.3644 17.166 16.417 17.166C21.1496 17.166 25 13.3156 25 8.58295C25 3.85037 21.1497 0 16.4171 0ZM16.4171 15.915C15.3932 15.915 14.403 15.7082 13.4739 15.3003C13.2336 15.1949 12.9631 15.2529 12.7859 15.4256C12.784 15.4274 12.7821 15.4289 12.7802 15.4308L10.6795 17.5315H8.96719C8.62173 17.5315 8.3417 17.8116 8.3417 18.157V19.503H7.72861C7.3832 19.503 7.10311 19.783 7.10311 20.1284V20.7415H5.57358C5.22818 20.7415 4.94809 21.0215 4.94809 21.367V23.2645L4.06756 24.1436H1.25108V23.2597L8.89631 15.6145C9.11619 15.3947 9.11619 15.0383 8.89631 14.8184C8.67644 14.5986 8.32012 14.5985 8.1001 14.8184L1.25108 21.6675V20.5374L9.56863 12.2193C9.57051 12.2174 9.57195 12.2157 9.57369 12.2138C9.74639 12.0368 9.80462 11.7663 9.69917 11.5258C9.29167 10.5967 9.08514 9.60657 9.08514 8.5831C9.08514 4.54019 12.3743 1.25103 16.4172 1.25103C20.4601 1.25103 23.7492 4.54014 23.7492 8.5831C23.7491 12.6259 20.4599 15.915 16.4171 15.915Z" fill="black"/>
<path d="M19.0291 3.62793C17.7372 3.62793 16.6862 4.67893 16.6862 5.97083C16.6862 7.26274 17.7372 8.31374 19.0291 8.31374C20.321 8.31374 21.372 7.26274 21.372 5.97083C21.372 4.67893 20.3211 3.62793 19.0291 3.62793ZM19.0291 7.06276C18.427 7.06276 17.9372 6.57292 17.9372 5.97083C17.9372 5.36875 18.427 4.87891 19.0291 4.87891C19.6312 4.87891 20.121 5.36875 20.121 5.97083C20.121 6.57292 19.6312 7.06276 19.0291 7.06276Z" fill="black"/>
</svg>
