<svg width="15" height="15" viewBox="0 0 15 15" fill="none" xmlns="http://www.w3.org/2000/svg">
<path d="M7.538 0.000117188C7.53747 0.000117188 7.53697 0.000117188 7.53645 8.78906e-05C7.53404 8.78906e-05 7.53167 0 7.5293 0C7.52895 0 7.52859 0 7.52824 0C7.5273 0 7.52634 2.92969e-05 7.5254 2.92969e-05C3.39217 0.00213867 0 3.34723 0 7.4707C0 8.47898 0.20083 9.4609 0.596953 10.3892C1.36386 12.1865 2.80966 13.6345 4.61077 14.403C5.53895 14.7991 6.52075 14.9999 7.52889 15C7.52915 15 7.52941 15 7.52968 15C7.53035 15 7.53105 15 7.53173 14.9999C11.6787 14.9986 15 11.5818 15 7.4707C15 3.34787 11.6672 0.00477539 7.538 0.000117188ZM6.07374 1.03837C5.3243 1.74888 4.71196 2.58103 4.25086 3.51562H2.21235C3.14725 2.28398 4.50694 1.38647 6.07374 1.03837ZM1.649 4.38867H3.8753C3.56789 5.23087 3.38613 6.12853 3.33923 7.03125H0.894053C0.957246 6.08414 1.22312 5.18534 1.649 4.38867ZM1.66556 10.6055C1.22933 9.79277 0.957363 8.8795 0.893818 7.91016H3.33624C3.37819 8.83289 3.5613 9.74505 3.87536 10.6055H1.66556ZM2.23034 11.4844H4.25086C4.71108 12.4172 5.32257 13.2491 6.07178 13.9598C4.51573 13.6105 3.16427 12.7143 2.23034 11.4844ZM4.21644 7.91016H7.08981V10.6055H4.82303C4.47211 9.76002 4.26357 8.85003 4.21644 7.91016ZM7.08987 13.685C6.34269 13.0629 5.72317 12.3158 5.25205 11.4844H7.08984V13.685H7.08987ZM7.08987 7.03125H4.21939C4.2721 6.11212 4.47943 5.2224 4.82309 4.39453H7.08987V7.03125ZM7.08987 3.51562H5.25211C5.7232 2.68418 6.34272 1.93711 7.08987 1.31496V3.51562ZM13.3578 4.39453C13.7799 5.1912 14.0434 6.08414 14.1061 7.03125H11.7193C11.6724 6.12853 11.4907 5.23673 11.1833 4.39453H13.3578ZM12.7994 3.51562H10.8078C10.3479 2.58349 9.73708 1.75228 8.98878 1.042C10.5347 1.3928 11.876 2.28838 12.7994 3.51562ZM7.96878 1.31514C8.71594 1.93729 9.33568 2.68418 9.80678 3.51562H7.96878V1.31514ZM7.96875 4.39453H10.2361C10.5797 5.22234 10.7866 6.11218 10.8393 7.03125H7.96875V4.39453ZM10.8424 7.9043C10.7953 8.84411 10.587 9.76008 10.2361 10.6055H7.96875V7.9043H10.8424ZM7.96878 13.6849V11.4785H9.80678C9.33568 12.31 8.71594 13.0627 7.96878 13.6849ZM8.99077 13.9561C9.73758 13.2468 10.348 12.4105 10.8077 11.4785H12.7816C11.8593 12.704 10.5261 13.6041 8.99077 13.9561ZM11.1833 10.6055C11.4974 9.74505 11.6805 8.82703 11.7224 7.9043H14.1064C14.0434 8.87364 13.7738 9.79277 13.3414 10.6055H11.1833Z" fill="#95979C"/>
</svg>
