<svg width="9" height="13" viewBox="0 0 9 13" fill="none" xmlns="http://www.w3.org/2000/svg">
<path d="M4.33334 0C1.94398 0 0 1.94398 0 4.33334C0 5.05063 0.179334 5.76182 0.520254 6.39262L4.09637 12.8604C4.14398 12.9466 4.2347 13 4.33334 13C4.43198 13 4.52271 12.9466 4.57031 12.8604L8.14775 6.39049C8.48735 5.76182 8.66668 5.0506 8.66668 4.33332C8.66668 1.94398 6.7227 0 4.33334 0ZM4.33334 6.5C3.13866 6.5 2.16668 5.52802 2.16668 4.33334C2.16668 3.13866 3.13866 2.16668 4.33334 2.16668C5.52802 2.16668 6.5 3.13866 6.5 4.33334C6.5 5.52802 5.52802 6.5 4.33334 6.5Z" fill="#939393"/>
</svg>
