<svg width="16" height="16" viewBox="0 0 16 16" fill="none" xmlns="http://www.w3.org/2000/svg">
<path d="M13.5891 4.70999C11.7937 1.60137 7.81823 0.536764 4.7096 2.33217C1.60097 4.12758 0.536374 8.10307 2.33178 11.2117C4.12719 14.3203 8.10268 15.3849 11.2113 13.5895C12.7042 12.7272 13.7935 11.3072 14.2393 9.64181C14.6851 7.97669 14.4512 6.20268 13.5891 4.70999ZM10.5294 11.2937C10.529 11.2939 10.5287 11.2941 10.5283 11.2943L10.5289 11.2922L10.1261 11.523C9.60305 11.8294 8.95794 11.8402 8.42487 11.5517C7.89225 11.2444 7.41231 10.8537 7.00324 10.3947C6.62099 9.9763 6.2859 9.51718 6.00404 9.02555C5.74343 8.57796 5.52815 8.10548 5.36134 7.61515C5.17691 7.08622 5.06663 6.53431 5.03365 5.97511C4.99974 5.31949 5.33914 4.70099 5.91037 4.37743L6.38271 4.10473C6.51415 4.02845 6.68254 4.07317 6.7588 4.20461C6.759 4.20495 6.75922 4.2053 6.75942 4.20567L7.62043 5.69699C7.69671 5.82844 7.65199 5.99683 7.52055 6.07309C7.5202 6.07329 7.51986 6.07348 7.51949 6.0737L6.6438 6.57928C6.39311 6.72219 6.28474 7.02698 6.38893 7.29608C6.54687 7.70583 6.73686 8.10248 6.95709 8.48239C7.20194 8.9086 7.48411 9.31223 7.8003 9.68857C7.98311 9.90563 8.29499 9.96086 8.54124 9.81981L9.39053 9.32062C9.52198 9.24433 9.69037 9.28906 9.76663 9.4205C9.76683 9.42084 9.76703 9.42118 9.76724 9.42156L10.6292 10.9176C10.7056 11.0491 10.6608 11.2174 10.5294 11.2937Z" fill="#939393"/>
</svg>
