<svg width="25" height="25" viewBox="0 0 25 25" fill="none" xmlns="http://www.w3.org/2000/svg">
<path d="M23.966 0.176024L21.3557 2.78633L20.1774 1.60804C19.5436 0.972876 18.6597 0.653757 17.7663 0.738022L13.5668 1.11851C12.8646 1.18436 12.2068 1.49192 11.7059 1.98877L0.883713 12.8107C-0.294571 13.9911 -0.294571 15.9025 0.883713 17.0829L7.91707 24.1163C9.10054 25.2927 11.0117 25.2927 12.1952 24.1163L23.0112 13.2941C23.5116 12.7958 23.8197 12.1366 23.8815 11.4332L24.262 7.23369C24.3432 6.34077 24.0245 5.45777 23.392 4.8226L22.2137 3.64431L24.824 1.03401C25.0593 0.796794 25.0586 0.413946 24.8223 0.177676C24.5861 -0.0585944 24.2032 -0.0593025 23.966 0.176024ZM22.5399 5.67468C22.9211 6.05399 23.1137 6.58318 23.0658 7.11874L22.685 11.3183C22.6473 11.7412 22.461 12.1373 22.1594 12.4361L11.3311 23.2642C10.6234 23.9711 9.47678 23.9711 8.76915 23.2642L1.7358 16.2308C1.02887 15.5232 1.02887 14.3766 1.7358 13.6689L12.5577 2.84062C12.8582 2.54109 13.2533 2.35533 13.6756 2.31497L17.8751 1.93424C17.9294 1.92929 17.9839 1.9274 18.0382 1.92834C18.519 1.92811 18.98 2.11953 19.3194 2.46013L20.4977 3.63841L18.3949 5.74101C17.3034 5.07586 15.8872 5.33007 15.0953 6.33345C14.3037 7.3366 14.3854 8.7731 15.2858 9.68019C16.1865 10.587 17.6223 10.6788 18.6311 9.89427C19.64 9.10945 19.9043 7.69514 19.2467 6.59923L21.3496 4.4964L22.5399 5.67468ZM18.0262 8.82881C17.5291 9.32873 16.7254 9.3462 16.2073 8.86775C15.689 8.38955 15.6418 7.58727 16.1004 7.05147C16.559 6.51591 17.3589 6.43872 17.9115 6.87704C17.9365 6.9226 17.9691 6.96367 18.008 6.99789C18.0455 7.03353 18.0861 7.06587 18.1289 7.09466C18.5403 7.61488 18.4961 8.36075 18.0262 8.82881Z" fill="black"/>
<path d="M8.73244 11.4814C8.49735 11.2463 8.11592 11.2463 7.8806 11.4814C7.64527 11.7167 7.64527 12.0981 7.8806 12.3335L12.6662 17.1191C12.7795 17.2333 12.9343 17.2966 13.0953 17.2944C13.2556 17.2937 13.4092 17.2309 13.5242 17.1191C13.6375 17.0062 13.701 16.853 13.701 16.693C13.701 16.5332 13.6375 16.38 13.5242 16.2672L8.73244 11.4814Z" fill="black"/>
<path d="M6.59987 13.6144C6.36454 13.3791 5.98311 13.3791 5.74778 13.6144C5.51246 13.8497 5.51246 14.2312 5.74778 14.4665L10.5334 19.2521C10.6467 19.3663 10.8015 19.4296 10.9625 19.4272C11.1228 19.4268 11.2764 19.364 11.3914 19.2521C11.5047 19.1393 11.5682 18.9859 11.5682 18.8261C11.5682 18.6663 11.5047 18.5131 11.3914 18.4L6.59987 13.6144Z" fill="black"/>
</svg>
