<svg width="25" height="33" viewBox="0 0 25 33" fill="none" xmlns="http://www.w3.org/2000/svg">
<path d="M24.7183 7.97385L17.0262 0.281731C16.8466 0.102115 16.6015 0 16.3462 0H2.88462C1.29404 0 0 1.29404 0 2.88462V29.9359C0 31.5265 1.29404 32.8205 2.88462 32.8205H22.1154C23.706 32.8205 25 31.5265 25 29.9359V8.65385C25 8.39167 24.8899 8.14545 24.7183 7.97385ZM17.3077 3.28288L21.7171 7.69231H18.2692C17.739 7.69231 17.3077 7.26096 17.3077 6.73077V3.28288ZM22.1154 30.8974H2.88462C2.35442 30.8974 1.92308 30.4661 1.92308 29.9359V2.88462C1.92308 2.35442 2.35442 1.92308 2.88462 1.92308H15.3846V6.73077C15.3846 8.32135 16.6787 9.61539 18.2692 9.61539H23.0769V29.9359C23.0769 30.4661 22.6456 30.8974 22.1154 30.8974Z" fill="black"/>
<path d="M18.2695 13.5898H6.73107C6.20004 13.5898 5.76953 14.0204 5.76953 14.5514C5.76953 15.0824 6.20004 15.5129 6.73107 15.5129H18.2695C18.8006 15.5129 19.2311 15.0824 19.2311 14.5514C19.2311 14.0204 18.8006 13.5898 18.2695 13.5898Z" fill="black"/>
<path d="M18.2695 17.4358H6.73107C6.20004 17.4358 5.76953 17.8663 5.76953 18.3973C5.76953 18.9284 6.20004 19.3589 6.73107 19.3589H18.2695C18.8006 19.3589 19.2311 18.9284 19.2311 18.3973C19.2311 17.8663 18.8006 17.4358 18.2695 17.4358Z" fill="black"/>
<path d="M18.2695 21.282H6.73107C6.20004 21.282 5.76953 21.7125 5.76953 22.2435C5.76953 22.7745 6.20004 23.2051 6.73107 23.2051H18.2695C18.8006 23.2051 19.2311 22.7745 19.2311 22.2435C19.2311 21.7125 18.8006 21.282 18.2695 21.282Z" fill="black"/>
<path d="M14.4234 25.1282H6.73107C6.20004 25.1282 5.76953 25.5587 5.76953 26.0897C5.76953 26.6207 6.20004 27.0513 6.73107 27.0513H14.4234C14.9544 27.0513 15.3849 26.6207 15.3849 26.0897C15.3849 25.5587 14.9544 25.1282 14.4234 25.1282Z" fill="black"/>
</svg>
