<svg width="38" height="38" viewBox="0 0 38 38" fill="none" xmlns="http://www.w3.org/2000/svg">
<circle cx="19" cy="19" r="19" fill="#5F95FF"/>
<path d="M23.1748 17.5497C23.0893 17.3608 22.9015 17.2405 22.6946 17.2405H20.5835V10.3793C20.5835 10.088 20.347 9.85156 20.0557 9.85156H17.9446C17.6532 9.85156 17.4168 10.088 17.4168 10.3793V17.2405H15.3057C15.0988 17.2405 14.9109 17.3618 14.8254 17.5497C14.7388 17.7387 14.7726 17.9593 14.9088 18.1155L18.6032 22.3377C18.7035 22.4528 18.8481 22.5182 19.0001 22.5182C19.1521 22.5182 19.2967 22.4517 19.397 22.3377L23.0915 18.1155C23.2287 17.9603 23.2603 17.7387 23.1748 17.5497Z" fill="white"/>
<path d="M24.8055 21.4629V24.6296H13.1944V21.4629H11.0833V25.6851C11.0833 26.2688 11.5561 26.7407 12.1388 26.7407H25.861C26.4448 26.7407 26.9166 26.2688 26.9166 25.6851V21.4629H24.8055Z" fill="white"/>
</svg>
