<svg width="109" height="36" viewBox="0 0 109 36" fill="none" xmlns="http://www.w3.org/2000/svg">
<path d="M47.2525 34.7725H38.3583L43.9171 0.610429H52.8122L47.2525 34.7725ZM30.876 0.610429L22.3967 24.1074L21.3934 19.0476L21.3943 19.0494L18.4015 3.68634C18.4015 3.68634 18.0396 0.610429 14.1824 0.610429H0.164487L0 1.18887C0 1.18887 4.28671 2.08076 9.30356 5.09361L17.0308 34.7734H26.2978L40.4482 0.610429H30.876ZM100.833 34.7725H109L101.88 0.609515H94.7298C91.4282 0.609515 90.6241 3.15541 90.6241 3.15541L77.3591 34.7725H86.6307L88.4848 29.6981H99.7915L100.833 34.7725ZM91.0463 22.6882L95.7195 9.90394L98.3486 22.6882H91.0463ZM78.0545 8.82564L79.3238 1.48952C79.3238 1.48952 75.4072 0 71.3243 0C66.9105 0 56.4291 1.92907 56.4291 11.3094C56.4291 20.135 68.7309 20.2447 68.7309 24.8805C68.7309 29.5163 57.6965 28.6856 54.055 25.7623L52.7327 33.4329C52.7327 33.4329 56.7041 35.362 62.7719 35.362C68.8414 35.362 77.9979 32.2193 77.9979 23.666C77.9979 14.7837 65.5855 13.9567 65.5855 10.0949C65.5864 6.23223 74.2485 6.72843 78.0545 8.82564Z" fill="#2566AF"/>
<path d="M21.3943 19.0485L18.4015 3.6854C18.4015 3.6854 18.0396 0.609497 14.1824 0.609497H0.164487L0 1.18794C0 1.18794 6.73757 2.58425 13.2001 7.81584C19.3793 12.8162 21.3943 19.0485 21.3943 19.0485Z" fill="#E6A540"/>
</svg>
