<svg width="25" height="25" viewBox="0 0 25 25" fill="none" xmlns="http://www.w3.org/2000/svg">
<path d="M23.2422 23.0469V9.11503L15.4297 5.18417V3.85742H13.4766V1.9043H9.57031V0H7.61719V1.9043H3.71094V3.85742H1.75781V23.0469H0V25H25V23.0469H23.2422ZM21.2891 10.3186V23.0469H15.4297V7.37057L21.2891 10.3186ZM3.71094 5.81055H5.66406V3.85742H11.5234V5.81055H13.4766V23.0469H3.71094V5.81055ZM5.66406 7.76367H7.61719V9.7168H5.66406V7.76367ZM9.57031 7.76367H11.5234V9.7168H9.57031V7.76367ZM5.66406 11.6699H7.61719V13.623H5.66406V11.6699ZM9.57031 11.6699H11.5234V13.623H9.57031V11.6699ZM5.66406 15.5762H7.61719V17.5293H5.66406V15.5762ZM9.57031 15.5762H11.5234V17.5293H9.57031V15.5762ZM5.66406 19.4824H7.61719V21.4355H5.66406V19.4824ZM9.57031 19.4824H11.5234V21.4355H9.57031V19.4824ZM19.3359 13.623H17.3828V11.6699H19.3359V13.623ZM19.3359 17.5293H17.3828V15.5762H19.3359V17.5293ZM17.3828 21.4355V19.4824H19.3359V21.4355H17.3828Z" fill="black"/>
</svg>
