<svg width="25" height="25" viewBox="0 0 25 25" fill="none" xmlns="http://www.w3.org/2000/svg">
<path d="M24.3043 16.6125C24.7544 15.324 25 13.9403 25 12.5001C25 11.0599 24.7544 9.67624 24.3043 8.38777C24.2933 8.34906 24.2803 8.31131 24.2645 8.275C22.5283 3.45545 17.9104 0 12.5 0C7.08961 0 2.47159 3.45545 0.735505 8.275C0.719736 8.31143 0.706596 8.34906 0.695725 8.38777C0.245606 9.67624 0 11.0599 0 12.5001C0 13.9403 0.245606 15.324 0.695725 16.6125C0.706716 16.6512 0.719736 16.6889 0.735505 16.7252C2.47171 21.5449 7.08961 25.0002 12.5 25.0002C17.9104 25.0002 22.5283 21.5448 24.2645 16.7252C24.2803 16.6889 24.2933 16.6513 24.3043 16.6125ZM12.5 23.2085C12.024 23.2085 11.2564 22.3469 10.6149 20.4222C10.3053 19.4934 10.0574 18.4257 9.87681 17.2642H15.1232C14.9426 18.4257 14.6947 19.4933 14.3852 20.4222C13.7436 22.3469 12.976 23.2085 12.5 23.2085ZM9.6594 15.4724C9.57327 14.5169 9.52776 13.5202 9.52776 12.5001C9.52776 11.4801 9.57327 10.4833 9.6594 9.52788H15.3405C15.4266 10.4833 15.4721 11.4801 15.4721 12.5001C15.4721 13.5202 15.4266 14.5169 15.3405 15.4724H9.6594ZM1.79176 12.5002C1.79176 11.4693 1.93857 10.4721 2.21177 9.528H7.86215C7.77841 10.5031 7.73588 11.5025 7.73588 12.5002C7.73588 13.498 7.77829 14.4973 7.86215 15.4725H2.21177C1.93857 14.5283 1.79176 13.5312 1.79176 12.5002ZM12.5 1.79187C12.976 1.79187 13.7437 2.65341 14.3852 4.57812C14.6947 5.50691 14.9427 6.57463 15.1232 7.736H9.87669C10.0573 6.57451 10.3052 5.50691 10.6148 4.57812C11.2564 2.65341 12.024 1.79187 12.5 1.79187ZM17.1377 9.528H22.7881C23.0613 10.4721 23.2081 11.4693 23.2081 12.5002C23.2081 13.5312 23.0613 14.5284 22.7881 15.4725H17.1377C17.2215 14.4973 17.264 13.498 17.264 12.5002C17.264 11.5025 17.2215 10.5031 17.1377 9.528ZM22.088 7.73612H16.9321C16.6134 5.53845 16.0667 3.56679 15.2996 2.16411C18.2735 2.97033 20.7374 5.02872 22.088 7.73612ZM9.70026 2.16399C8.93321 3.56667 8.38645 5.53833 8.06774 7.73612H2.91192C4.26263 5.02872 6.72634 2.97033 9.70026 2.16399ZM2.91192 17.2642H8.06774C8.38645 19.4619 8.93321 21.4336 9.70026 22.8364C6.72634 22.03 4.26263 19.9718 2.91192 17.2642ZM15.2996 22.8364C16.0667 21.4337 16.6134 19.462 16.9321 17.2642H22.088C20.7374 19.9718 18.2735 22.03 15.2996 22.8364Z" fill="black"/>
</svg>
