<svg width="15" height="22" viewBox="0 0 15 22" fill="none" xmlns="http://www.w3.org/2000/svg">
<path d="M7.5 0C3.36453 0 0 3.36453 0 7.5C0 12.6978 7.50737 21.5768 7.50737 21.5768C7.50737 21.5768 15 12.4422 15 7.5C15 3.36453 11.6356 0 7.5 0ZM9.76291 9.696C9.13894 10.3198 8.31953 10.6318 7.5 10.6318C6.6806 10.6318 5.86093 10.3198 5.23723 9.696C3.98942 8.44833 3.98942 6.41813 5.23723 5.17032C5.84144 4.56585 6.64517 4.23292 7.5 4.23292C8.35483 4.23292 9.15843 4.56598 9.76291 5.17032C11.0107 6.41813 11.0107 8.44833 9.76291 9.696Z" fill="black"/>
</svg>
