<svg width="136" height="46" viewBox="0 0 136 46" fill="none" xmlns="http://www.w3.org/2000/svg">
<g clip-path="url(#clip0_511_1734)">
<path d="M24.2521 45.3698C17.0624 45.2456 11.2816 43.0628 6.58456 38.3603C1.86107 33.6314 -0.46444 27.8507 0.0773685 21.119C0.744481 12.8303 5.02607 6.82387 12.172 2.88967C16.864 0.306476 21.942 -0.515412 27.2214 0.306287C35.0243 1.52067 41.1068 5.46829 44.7869 12.5716C48.7047 20.134 48.236 27.7026 43.5959 34.8295C39.8845 40.5299 34.4738 43.7863 27.8423 44.9677C26.4621 45.2135 25.051 45.2836 24.2521 45.3698V45.3698ZM128.108 27.9801H127.182V31.6219C127.182 32.1013 127.06 32.4547 126.817 32.6814C126.573 32.9079 126.256 33.0214 125.864 33.0214C125.442 33.0214 125.116 32.9029 124.884 32.6658C124.653 32.4289 124.537 32.0808 124.537 31.6219V22.8998C124.537 22.4051 124.664 22.0469 124.92 21.8252C125.175 21.6035 125.588 21.4925 126.158 21.4925H130.459C131.052 21.4925 131.56 21.5147 131.981 21.5585C132.403 21.6022 132.783 21.6912 133.121 21.8252C133.531 21.9746 133.893 22.1885 134.208 22.4668C134.522 22.7451 134.761 23.069 134.925 23.4373C135.088 23.8061 135.169 24.1963 135.169 24.6087C135.169 25.4544 134.895 26.1296 134.346 26.6347C133.797 27.1398 132.964 27.498 131.848 27.7094C132.317 27.926 132.765 28.2455 133.193 28.6682C133.62 29.0908 134.001 29.5409 134.337 30.0177C134.672 30.4945 134.933 30.925 135.12 31.309C135.307 31.693 135.401 31.9572 135.401 32.1013C135.401 32.2509 135.346 32.399 135.236 32.5462C135.126 32.6931 134.976 32.8091 134.786 32.894C134.596 32.979 134.377 33.0213 134.128 33.0213C133.831 33.0213 133.581 32.961 133.38 32.8399C133.178 32.7187 133.004 32.5654 132.859 32.3798C132.713 32.1942 132.516 31.921 132.266 31.56L131.207 30.0289C130.827 29.4672 130.487 29.0392 130.187 28.7455C129.887 28.4518 129.583 28.2505 129.275 28.1423C128.966 28.0341 128.577 27.98 128.108 27.98V27.9801ZM129.622 23.2168H127.182V26.3331H129.551C130.186 26.3331 130.72 26.2856 131.153 26.19C131.587 26.0947 131.918 25.9324 132.146 25.7029C132.375 25.4736 132.489 25.1578 132.489 24.7556C132.489 24.4414 132.397 24.1643 132.213 23.9244C132.029 23.6848 131.774 23.5058 131.447 23.387C131.138 23.2737 130.53 23.2168 129.622 23.2168L129.622 23.2168ZM120.993 23.2634H115.036V26.0469H120.521C120.924 26.0469 121.226 26.1258 121.425 26.2828C121.624 26.4403 121.723 26.6476 121.723 26.9052C121.723 27.1631 121.625 27.3731 121.429 27.5354C121.233 27.698 120.931 27.7789 120.521 27.7789H115.036V31.0033H121.198C121.613 31.0033 121.926 31.0873 122.137 31.2549C122.348 31.4225 122.453 31.6451 122.453 31.9235C122.453 32.1918 122.348 32.4097 122.137 32.577C121.926 32.7446 121.613 32.8283 121.198 32.8283H114.011C113.436 32.8283 113.022 32.7173 112.769 32.4956C112.517 32.2742 112.391 31.9157 112.391 31.4209V22.8997C112.391 22.5701 112.447 22.3006 112.56 22.0918C112.673 21.8831 112.849 21.731 113.09 21.6357C113.33 21.5404 113.638 21.4924 114.011 21.4924H120.993C121.414 21.4924 121.728 21.5738 121.932 21.7361C122.137 21.8987 122.24 22.111 122.24 22.3739C122.24 22.6421 122.137 22.8573 121.932 23.0198C121.728 23.1821 121.414 23.2633 120.993 23.2633V23.2634ZM101.981 22.6756L107.066 29.3563V22.6139C107.066 22.1758 107.174 21.8472 107.391 21.628C107.607 21.4091 107.9 21.2994 108.268 21.2994C108.648 21.2994 108.948 21.4091 109.167 21.628C109.387 21.8472 109.497 22.1758 109.497 22.6139V31.5292C109.497 32.5242 109.022 33.0214 108.072 33.0214C107.834 33.0214 107.621 32.9919 107.431 32.9327C107.241 32.8733 107.063 32.7793 106.897 32.6503C106.73 32.5217 106.576 32.371 106.434 32.1981C106.291 32.0254 106.148 31.849 106.006 31.6685L101.046 25.0651V31.7071C101.046 32.1399 100.93 32.4676 100.699 32.689C100.467 32.9105 100.17 33.0214 99.8082 33.0214C99.4343 33.0214 99.1343 32.9095 98.9088 32.6852C98.6831 32.461 98.5706 32.1351 98.5706 31.7071V22.9618C98.5706 22.5907 98.6179 22.2994 98.7129 22.0881C98.8256 21.856 99.0127 21.6667 99.2741 21.5198C99.5352 21.3729 99.8173 21.2994 100.12 21.2994C100.357 21.2994 100.561 21.333 100.73 21.3997C100.899 21.467 101.047 21.5572 101.175 21.6705C101.303 21.784 101.433 21.9309 101.567 22.1111C101.7 22.2919 101.839 22.4799 101.981 22.6756L101.981 22.6756ZM92.9338 31.6219V22.691C92.9338 22.2271 93.0554 21.8793 93.2987 21.6472C93.5421 21.4154 93.8565 21.2994 94.2426 21.2994C94.6402 21.2994 94.9624 21.4141 95.209 21.6434C95.4551 21.873 95.5785 22.2221 95.5785 22.691V31.6219C95.5785 32.0911 95.4551 32.4415 95.209 32.6736C94.9624 32.9057 94.6401 33.0214 94.2426 33.0214C93.8627 33.0214 93.5494 32.9044 93.3033 32.6698C93.0568 32.4353 92.9338 32.0858 92.9338 31.622V31.6219ZM88.0629 31.5446L87.4395 30.1218H82.1321L81.5087 31.5757C81.2653 32.1427 81.0575 32.5257 80.8854 32.7239C80.713 32.9223 80.4312 33.0214 80.0394 33.0214C79.707 33.0214 79.413 32.9158 79.1579 32.7044C78.9026 32.4931 78.775 32.2534 78.775 31.9855C78.775 31.8308 78.8046 31.671 78.864 31.5059C78.9231 31.3411 79.0212 31.1115 79.1579 30.8178L82.4973 23.4565C82.5921 23.2454 82.7064 22.9916 82.8401 22.6951C82.9735 22.3988 83.1161 22.1526 83.2675 21.9566C83.4189 21.7607 83.6176 21.6022 83.8641 21.4811C84.1103 21.36 84.4146 21.2994 84.7768 21.2994C85.1449 21.2994 85.452 21.36 85.6984 21.4811C85.9446 21.6022 86.1438 21.7582 86.2952 21.9488C86.4466 22.1397 86.574 22.3447 86.6779 22.5636C86.7818 22.7828 86.914 23.0753 87.0743 23.4411L90.485 30.7558C90.7522 31.3128 90.8857 31.7175 90.8857 31.97C90.8857 32.2327 90.7595 32.4739 90.5073 32.6931C90.2547 32.912 89.9507 33.0214 89.5945 33.0214C89.3865 33.0214 89.2085 32.9893 89.0601 32.9249C88.9118 32.8604 88.7871 32.7729 88.6863 32.662C88.5852 32.5512 88.477 32.3811 88.3612 32.1518C88.2455 31.9225 88.1459 31.72 88.063 31.5446L88.0629 31.5446ZM82.8267 28.3975H86.727L84.7591 23.7194L82.8267 28.3975V28.3975ZM70.146 27.9801H69.2199V31.6219C69.2199 32.1013 69.0983 32.4547 68.8549 32.6814C68.6115 32.908 68.294 33.0214 67.902 33.0214C67.4804 33.0214 67.154 32.9029 66.9225 32.6658C66.691 32.4289 66.5752 32.0809 66.5752 31.6219V22.8998C66.5752 22.4051 66.7028 22.0469 66.9581 21.8252C67.2133 21.6035 67.626 21.4925 68.1959 21.4925H72.497C73.0906 21.4925 73.5982 21.5147 74.0198 21.5585C74.4411 21.6022 74.821 21.6912 75.1596 21.8252C75.5693 21.9746 75.9313 22.1885 76.246 22.4668C76.5605 22.7451 76.7993 23.069 76.9628 23.4373C77.1258 23.8061 77.2077 24.1964 77.2077 24.6088C77.2077 25.4544 76.9329 26.1296 76.3839 26.6347C75.8346 27.1398 75.002 27.498 73.886 27.7094C74.3549 27.926 74.8033 28.2455 75.2308 28.6682C75.6582 29.0909 76.0394 29.5409 76.3751 30.0177C76.7102 30.4945 76.9716 30.925 77.1587 31.309C77.3457 31.693 77.4392 31.9572 77.4392 32.1013C77.4392 32.2509 77.3841 32.399 77.2744 32.5462C77.1645 32.6931 77.0146 32.8091 76.8248 32.894C76.6347 32.979 76.415 33.0214 76.1658 33.0214C75.8688 33.0214 75.6195 32.961 75.4178 32.8399C75.2159 32.7188 75.0422 32.5654 74.8969 32.3798C74.7513 32.1943 74.5538 31.921 74.3046 31.56L73.245 30.029C72.8648 29.4673 72.5251 29.0393 72.2253 28.7456C71.9255 28.4518 71.6212 28.2506 71.3125 28.1424C71.0039 28.0342 70.6149 27.9801 70.146 27.9801L70.146 27.9801ZM71.6599 23.2168H69.2198V26.3331H71.5886C72.2238 26.3331 72.7582 26.2856 73.1914 26.19C73.6247 26.0947 73.9558 25.9325 74.1843 25.7029C74.4128 25.4737 74.5273 25.1578 74.5273 24.7557C74.5273 24.4415 74.435 24.1644 74.2513 23.9244C74.067 23.6849 73.8117 23.5059 73.4854 23.3871C73.1765 23.2738 72.5681 23.2169 71.6599 23.2169V23.2168ZM63.6723 23.387H60.7871V31.6219C60.7871 32.0964 60.6653 32.4483 60.4219 32.6776C60.1784 32.9069 59.8637 33.0214 59.478 33.0214C59.0862 33.0214 58.767 32.9057 58.5208 32.6736C58.2743 32.4415 58.1512 32.0911 58.1512 31.6219V23.387H55.2661C54.8149 23.387 54.4792 23.3008 54.2598 23.1281C54.0401 22.9555 53.9302 22.7272 53.9302 22.4438C53.9302 22.1498 54.0444 21.918 54.2732 21.7478C54.5014 21.5777 54.8326 21.4925 55.2661 21.4925H63.6723C64.1293 21.4925 64.4692 21.5805 64.6917 21.7554C64.9144 21.9309 65.0259 22.1604 65.0259 22.4438C65.0259 22.7272 64.9129 22.9555 64.6874 23.1281C64.4617 23.3008 64.1232 23.387 63.6723 23.387L63.6723 23.387ZM134.587 13.5182H131.038V15.1765H134.305C134.546 15.1765 134.726 15.2233 134.844 15.3169C134.962 15.4106 135.022 15.5343 135.022 15.6877C135.022 15.8414 134.963 15.9665 134.847 16.0631C134.73 16.1599 134.55 16.2082 134.305 16.2082H131.038V18.1293H134.709C134.956 18.1293 135.143 18.1792 135.269 18.2789C135.394 18.3789 135.457 18.5115 135.457 18.6773C135.457 18.8371 135.394 18.9668 135.269 19.0667C135.143 19.1666 134.956 19.2163 134.709 19.2163H130.428C130.085 19.2163 129.838 19.1504 129.688 19.0181C129.537 18.8861 129.462 18.6728 129.462 18.378V13.3018C129.462 13.1051 129.496 12.9446 129.563 12.8202C129.63 12.6958 129.735 12.6053 129.879 12.5484C130.022 12.4918 130.205 12.4632 130.428 12.4632H134.587C134.838 12.4632 135.024 12.5115 135.146 12.6084C135.269 12.7052 135.329 12.8318 135.329 12.9883C135.329 13.1481 135.269 13.2763 135.146 13.3731C135.024 13.4696 134.838 13.5182 134.587 13.5182H134.587ZM127.722 13.592H126.003V18.4976C126.003 18.7802 125.931 18.9898 125.786 19.1263C125.641 19.2631 125.453 19.3316 125.224 19.3316C124.99 19.3316 124.8 19.2623 124.653 19.1243C124.506 18.986 124.433 18.7772 124.433 18.4976V13.592H122.714C122.445 13.592 122.246 13.5404 122.115 13.4375C121.984 13.3346 121.919 13.1989 121.919 13.0298C121.919 12.8548 121.987 12.7166 122.123 12.6154C122.259 12.5141 122.456 12.4632 122.714 12.4632H127.722C127.994 12.4632 128.197 12.5157 128.33 12.62C128.462 12.7244 128.529 12.8612 128.529 13.0299C128.529 13.199 128.461 13.3347 128.327 13.4375C128.192 13.5405 127.991 13.592 127.722 13.592L127.722 13.592ZM120.789 18.4516L120.417 17.6039H117.255L116.884 18.47C116.739 18.808 116.615 19.0358 116.513 19.1541C116.41 19.2722 116.242 19.3316 116.009 19.3316C115.811 19.3316 115.636 19.2684 115.484 19.1425C115.332 19.0168 115.256 18.874 115.256 18.7142C115.256 18.622 115.273 18.5269 115.309 18.4286C115.344 18.3305 115.402 18.1937 115.484 18.0185L117.473 13.6335C117.529 13.5076 117.598 13.3561 117.677 13.1794C117.757 13.003 117.842 12.8563 117.932 12.7398C118.022 12.623 118.141 12.5285 118.287 12.4564C118.434 12.3844 118.615 12.3482 118.831 12.3482C119.05 12.3482 119.233 12.3844 119.38 12.4564C119.527 12.5285 119.645 12.6215 119.736 12.735C119.826 12.8488 119.902 12.9709 119.964 13.1013C120.026 13.2318 120.104 13.4062 120.2 13.6241L122.232 17.9819C122.391 18.3135 122.47 18.5545 122.47 18.7049C122.47 18.8616 122.395 19.0052 122.245 19.1356C122.095 19.2661 121.913 19.3316 121.701 19.3316C121.577 19.3316 121.471 19.3121 121.383 19.2739C121.294 19.2353 121.22 19.1832 121.16 19.1172C121.1 19.0512 121.035 18.9498 120.966 18.8131C120.897 18.6766 120.838 18.556 120.789 18.4516V18.4516ZM117.669 16.5768H119.993L118.821 13.7899L117.669 16.5768V16.5768ZM110.041 13.2464L111.802 17.7746L113.569 13.2141C113.661 12.9747 113.73 12.8081 113.776 12.7143C113.821 12.6207 113.898 12.5363 114.004 12.461C114.11 12.3856 114.255 12.3482 114.439 12.3482C114.573 12.3482 114.698 12.3773 114.813 12.4357C114.927 12.4941 115.018 12.5714 115.083 12.6683C115.149 12.7651 115.181 12.8627 115.181 12.9608C115.181 13.0285 115.171 13.1013 115.15 13.1794C115.128 13.2578 115.102 13.3346 115.07 13.41C115.038 13.4851 115.006 13.5627 114.974 13.6426L113.091 18.0554C113.024 18.2243 112.957 18.3848 112.89 18.5368C112.822 18.6887 112.744 18.8224 112.656 18.9375C112.568 19.0527 112.45 19.1473 112.303 19.2208C112.157 19.2947 111.977 19.3316 111.765 19.3316C111.553 19.3316 111.373 19.2952 111.227 19.2231C111.08 19.1511 110.961 19.0558 110.871 18.9375C110.781 18.8194 110.702 18.6852 110.635 18.5345C110.568 18.3841 110.501 18.2243 110.433 18.0554L108.582 13.6795C108.55 13.5996 108.517 13.5212 108.484 13.4444C108.45 13.3678 108.422 13.2848 108.399 13.1956C108.376 13.1066 108.364 13.0315 108.364 12.9701C108.364 12.8134 108.437 12.6705 108.582 12.5416C108.727 12.4127 108.909 12.3482 109.128 12.3482C109.397 12.3482 109.587 12.4195 109.699 12.5623C109.81 12.7052 109.924 12.9332 110.041 13.2464H110.041ZM105.553 18.4976V13.1774C105.553 12.9008 105.625 12.6935 105.771 12.5555C105.915 12.4172 106.103 12.3482 106.333 12.3482C106.57 12.3482 106.762 12.4165 106.908 12.553C107.055 12.6898 107.128 12.8978 107.128 13.1774V18.4976C107.128 18.7772 107.055 18.986 106.908 19.1243C106.762 19.2623 106.57 19.3316 106.333 19.3316C106.106 19.3316 105.92 19.2615 105.773 19.1217C105.626 18.9822 105.553 18.7741 105.553 18.4976V18.4976ZM99.7916 16.3281H99.2401V18.4976C99.2401 18.7832 99.1675 18.9936 99.0225 19.1288C98.8774 19.2638 98.6883 19.3316 98.455 19.3316C98.2037 19.3316 98.0093 19.2608 97.8713 19.1195C97.7333 18.9784 97.6646 18.7711 97.6646 18.4976V13.3018C97.6646 13.0068 97.7404 12.7934 97.8926 12.6614C98.0445 12.5295 98.2904 12.4632 98.6299 12.4632H101.192C101.546 12.4632 101.848 12.4764 102.099 12.5024C102.351 12.5284 102.577 12.5815 102.778 12.6614C103.022 12.7504 103.238 12.8778 103.425 13.0437C103.613 13.2095 103.755 13.4021 103.853 13.6218C103.95 13.8413 103.998 14.074 103.998 14.3198C103.998 14.8234 103.835 15.2256 103.508 15.5267C103.181 15.8275 102.685 16.0409 102.02 16.1668C102.299 16.2959 102.566 16.4863 102.821 16.7381C103.075 16.9899 103.303 17.2578 103.503 17.5417C103.702 17.8259 103.858 18.0825 103.97 18.311C104.081 18.5398 104.137 18.6973 104.137 18.7832C104.137 18.8725 104.104 18.9606 104.038 19.0482C103.973 19.1356 103.884 19.2047 103.771 19.2555C103.657 19.306 103.526 19.3316 103.378 19.3316C103.201 19.3316 103.052 19.2952 102.932 19.2231C102.812 19.1511 102.708 19.0596 102.622 18.9491C102.535 18.8386 102.418 18.6758 102.269 18.4609L101.638 17.5488C101.411 17.2141 101.209 16.959 101.031 16.784C100.852 16.6091 100.671 16.4892 100.487 16.4248C100.303 16.3603 100.071 16.328 99.7916 16.328V16.3281ZM100.694 13.4906H99.2401V15.3469H100.651C101.03 15.3469 101.348 15.3186 101.606 15.2617C101.864 15.2049 102.061 15.108 102.198 14.9715C102.334 14.8348 102.402 14.6467 102.402 14.4073C102.402 14.22 102.347 14.0549 102.237 13.912C102.128 13.7692 101.976 13.6625 101.781 13.592C101.597 13.5245 101.235 13.4906 100.694 13.4906V13.4906ZM93.4471 16.5862H92.004V18.4976C92.004 18.7711 91.9299 18.9784 91.7813 19.1195C91.6327 19.2608 91.4454 19.3316 91.2189 19.3316C90.982 19.3316 90.7909 19.2615 90.6461 19.1217C90.501 18.9822 90.4284 18.7772 90.4284 18.5069V13.3018C90.4284 13.0007 90.5081 12.7858 90.6673 12.6569C90.8263 12.5277 91.0791 12.4632 91.4259 12.4632H93.4471C94.0446 12.4632 94.5044 12.5032 94.8264 12.5831C95.1447 12.6599 95.4194 12.7873 95.6512 12.9653C95.8828 13.1435 96.0587 13.3614 96.179 13.6196C96.2994 13.8774 96.3595 14.1676 96.3595 14.4902C96.3595 15.1781 96.1153 15.6993 95.6275 16.054C95.1394 16.4087 94.4127 16.5862 93.4471 16.5862V16.5862ZM93.0651 13.4906H92.004V15.5542H93.0651C93.4364 15.5542 93.7468 15.5204 93.9961 15.4529C94.2453 15.3854 94.4354 15.2749 94.5663 15.1212C94.6973 14.9677 94.7627 14.7665 94.7627 14.5178C94.7627 14.22 94.6619 13.9773 94.4602 13.7899C94.2339 13.5905 93.7688 13.4906 93.0651 13.4906V13.4906ZM82.6567 18.4976V16.3556L80.7576 13.799C80.5913 13.5687 80.4738 13.3893 80.4048 13.2603C80.336 13.1311 80.3014 13.0192 80.3014 12.9238C80.3014 12.7674 80.3711 12.6324 80.5109 12.5186C80.6507 12.4051 80.8231 12.3482 81.0281 12.3482C81.244 12.3482 81.4075 12.4011 81.519 12.507C81.6302 12.6129 81.7975 12.8242 82.0202 13.1405L83.4737 15.1902L84.9433 13.1405C85.0315 13.0146 85.1058 12.9087 85.166 12.8227C85.2261 12.7368 85.2924 12.6561 85.3649 12.5808C85.4375 12.5055 85.5178 12.4481 85.6063 12.4081C85.6948 12.3682 85.8027 12.3482 85.9299 12.3482C86.128 12.3482 86.2933 12.4041 86.4261 12.5163C86.5585 12.6283 86.625 12.758 86.625 12.9056C86.625 13.0252 86.5911 13.145 86.5241 13.2649C86.4569 13.3847 86.3419 13.5505 86.1793 13.7624L84.2325 16.3556V18.4976C84.2325 18.7772 84.1582 18.986 84.0096 19.1243C83.8609 19.2623 83.6718 19.3316 83.4421 19.3316C83.2085 19.3316 83.0192 19.2631 82.8744 19.1263C82.7293 18.9898 82.6567 18.7802 82.6567 18.4976V18.4976ZM74.498 18.1983L73.2513 13.8959V18.5575C73.2513 18.8156 73.1848 19.009 73.0524 19.1379C72.9197 19.2669 72.7437 19.3316 72.5243 19.3316C72.3123 19.3316 72.1389 19.2676 72.0046 19.1402C71.8702 19.0128 71.8029 18.8186 71.8029 18.5575V13.2141C71.8029 12.9193 71.8914 12.7206 72.0681 12.6175C72.245 12.5148 72.4836 12.4632 72.7844 12.4632H73.2725C73.566 12.4632 73.7791 12.4863 73.9116 12.5325C74.0443 12.5785 74.1423 12.6614 74.206 12.7813C74.2697 12.9008 74.3423 13.096 74.4237 13.3662L75.5536 17.0652L76.6835 13.3662C76.7648 13.096 76.8374 12.9008 76.9011 12.7813C76.9645 12.6614 77.0629 12.5785 77.1953 12.5325C77.328 12.4863 77.5411 12.4632 77.8345 12.4632H78.3227C78.6231 12.4632 78.8617 12.5148 79.0388 12.6175C79.2156 12.7206 79.3042 12.9193 79.3042 13.2141V18.5575C79.3042 18.8156 79.2377 19.009 79.1053 19.1379C78.9726 19.2669 78.7948 19.3316 78.5718 19.3316C78.3633 19.3316 78.1916 19.2669 78.0575 19.1379C77.923 19.009 77.8557 18.8156 77.8557 18.5575V13.8959L76.609 18.1983C76.5276 18.4779 76.4614 18.6826 76.4101 18.8131C76.3588 18.9438 76.2643 19.0628 76.1266 19.1703C75.9886 19.2777 75.7975 19.3316 75.5535 19.3316C75.3695 19.3316 75.214 19.2969 75.0866 19.2277C74.9592 19.1588 74.8601 19.0704 74.7896 18.963C74.7188 18.8556 74.6629 18.7365 74.6225 18.6058C74.5818 18.4754 74.5401 18.3396 74.4979 18.1983L74.498 18.1983ZM67.0339 13.5182H63.485V15.1765H66.7528C66.9932 15.1765 67.1726 15.2233 67.2912 15.3169C67.4095 15.4106 67.4689 15.5343 67.4689 15.6877C67.4689 15.8414 67.4105 15.9665 67.2937 16.0631C67.1772 16.1599 66.9967 16.2082 66.7528 16.2082H63.485V18.1293H67.156C67.4034 18.1293 67.59 18.1792 67.7156 18.2789C67.841 18.3789 67.9039 18.5115 67.9039 18.6773C67.9039 18.8371 67.841 18.9668 67.7156 19.0667C67.59 19.1666 67.4034 19.2163 67.156 19.2163H62.8748C62.5317 19.2163 62.285 19.1504 62.1346 19.0181C61.9842 18.8861 61.9092 18.6728 61.9092 18.378V13.3018C61.9092 13.1051 61.9428 12.9446 62.01 12.8202C62.0773 12.6958 62.1824 12.6053 62.3257 12.5484C62.4691 12.4918 62.6521 12.4632 62.8748 12.4632H67.0339C67.2849 12.4632 67.4714 12.5115 67.5935 12.6084C67.7156 12.7052 67.7765 12.8318 67.7765 12.9883C67.7765 13.1481 67.7156 13.2763 67.5935 13.3731C67.4714 13.4696 67.2849 13.5182 67.0339 13.5182V13.5182ZM57.4161 19.2163H55.0393C54.6963 19.2163 54.4514 19.1496 54.3048 19.0158C54.1579 18.8823 54.0846 18.6697 54.0846 18.378V13.3018C54.0846 13.004 54.1597 12.7896 54.3101 12.6589C54.4602 12.5285 54.7034 12.4632 55.0393 12.4632H57.5592C57.9305 12.4632 58.2523 12.4832 58.5248 12.5232C58.797 12.5631 59.041 12.64 59.2568 12.7535C59.4406 12.8488 59.6034 12.9694 59.7449 13.115C59.8862 13.2611 59.9942 13.4221 60.0685 13.5988C60.1428 13.7753 60.18 13.9621 60.18 14.1585C60.18 14.834 59.7907 15.3285 59.0129 15.6417C60.0349 15.9243 60.546 16.4739 60.546 17.2907C60.546 17.6686 60.4345 18.0087 60.2118 18.311C59.9889 18.6136 59.6884 18.8371 59.3099 18.9814C59.0729 19.0674 58.8006 19.1281 58.493 19.1632C58.1854 19.1986 57.8262 19.2163 57.4162 19.2163L57.4161 19.2163ZM55.6601 13.4906V15.2365H57.103C57.4955 15.2365 57.7988 15.2041 58.0129 15.1396C58.2268 15.0752 58.3903 14.9523 58.5036 14.7711C58.5918 14.6421 58.6363 14.4978 58.6363 14.338C58.6363 13.9972 58.4965 13.7707 58.2172 13.6587C57.9376 13.5465 57.5114 13.4906 56.9387 13.4906H55.6601V13.4906ZM57.2994 16.2176H55.6601V18.1892H57.3524C58.4169 18.1892 58.9492 17.856 58.9492 17.1896C58.9492 16.8486 58.8112 16.6017 58.5354 16.448C58.2594 16.2944 57.8474 16.2177 57.2994 16.2177L57.2994 16.2176ZM37.8049 35.314C38.0787 35.5176 37.846 36.0952 38.3894 36.0189C38.4091 36.3477 38.4091 36.3477 37.584 36.6764C37.6269 36.7839 37.67 36.8916 37.7317 37.0456C37.5935 37.0147 37.491 36.9919 37.3885 36.9693C37.1841 37.7611 36.1118 38.6007 35.2005 38.5647C34.507 38.5371 33.8211 38.3451 33.1286 38.252C32.7901 38.2066 32.4235 38.1387 32.105 38.2207C30.7706 38.5647 29.4161 38.5978 28.0567 38.557C27.3392 38.5355 26.8563 37.9498 26.8635 37.1657C26.5985 37.2979 26.3446 37.4246 26.0905 37.5513C26.0654 37.5182 26.0404 37.4849 26.0153 37.4518C26.1698 37.3598 26.3243 37.268 26.4789 37.1761C26.4489 37.1279 26.419 37.0798 26.3891 37.0316C26.1207 36.9475 25.8523 36.8633 25.5746 36.7763C25.5746 36.6107 25.5746 36.4423 25.5746 36.2165C25.6947 36.315 25.789 36.3924 25.8862 36.4721C25.9134 36.2116 25.94 35.9573 25.972 35.6496C26.2135 35.7777 26.3694 35.9047 26.5448 35.9446C26.9885 36.0458 27.4052 36.0714 27.7366 35.6181C28.0768 35.1523 28.5111 34.7572 28.8593 34.2967C29.0147 34.0914 29.1168 33.8077 29.1447 33.5487C29.2154 32.893 29.226 32.2306 29.2704 31.5717C29.2899 31.2836 29.3152 30.9936 29.3699 30.7107C29.4418 30.3396 29.6483 30.0737 30.0233 29.9472C30.2644 29.8658 30.5 29.759 30.7251 29.639C31.5831 29.182 31.7026 29.0205 31.273 28.1801C30.9592 27.5662 31.1127 27.0047 31.1695 26.4285C31.2272 25.8409 31.6621 25.5675 32.3156 25.5818C32.8795 25.5941 33.2146 25.8623 33.2748 26.4519C33.3238 26.9328 33.3144 27.426 33.2695 27.9078C33.2486 28.1294 33.0854 28.3392 32.9789 28.5503C32.7806 28.9435 32.8988 29.2378 33.2599 29.4421C33.5378 29.5994 33.8151 29.778 34.1157 29.8696C34.797 30.0774 35.0145 30.5773 35.0599 31.2219C35.1154 32.0062 35.1613 32.7921 35.2437 33.5736C35.3426 34.5129 36.1401 34.9821 36.6772 35.6181C36.8572 35.8311 37.3603 35.6584 37.8049 35.3139V35.314ZM30.2894 33.7177C30.2853 34.8081 29.3574 35.2295 28.7529 35.8927C29.0404 35.9889 30.0189 35.8493 30.0593 35.6833C30.2137 35.0462 30.5368 34.4237 30.2894 33.7178V33.7177ZM36.0605 36.225C35.3891 35.6946 34.8245 35.2485 34.2735 34.8132C34.2904 34.9362 34.2996 35.1269 34.3463 35.3077C34.3909 35.4808 34.435 35.7489 34.5482 35.7922C34.9993 35.9647 35.4773 36.066 36.0605 36.225H36.0605ZM7.92157 34.7126C8.08528 34.8106 8.24975 34.9072 8.41227 35.007C8.88616 35.2979 9.36126 35.292 9.80278 34.9608C10.784 34.2246 11.7766 34.3262 12.8242 34.8181C13.485 35.1283 14.1773 35.3969 14.8827 35.5719C15.2161 35.6546 15.651 35.5523 15.9744 35.3959C16.6827 35.0537 17.3599 34.7497 18.1584 35.0921C18.6959 35.3225 19.1545 35.159 19.5299 34.7193C19.6093 34.6263 19.7138 34.5549 19.8789 34.4104C19.8155 35.1234 19.6628 35.693 19.1996 36.1409C18.9062 36.4245 18.5801 36.5221 18.1948 36.3312C17.6224 36.0475 17.1081 36.0514 16.5566 36.4737C15.5662 37.2321 14.5327 36.8621 13.5171 36.4631C12.9556 36.2425 12.3903 36.0298 11.8185 35.8383C11.1561 35.6164 10.6147 35.8337 10.1193 36.3106C9.42778 36.976 9.14458 36.9506 8.57519 36.1589C8.273 35.7388 8.05499 35.2571 7.79911 34.8032C7.83992 34.773 7.88082 34.7427 7.9216 34.7126L7.92157 34.7126ZM7.85738 33.4259C9.71898 33.5505 10.9984 32.3673 12.3856 31.4306C12.4598 31.3805 12.5351 31.2383 12.5183 31.1589C12.3655 30.4436 12.1921 29.7327 12.0158 28.9824C11.4779 29.6508 10.9166 30.3404 10.3646 31.0375C10.1054 31.365 9.88465 31.7252 9.61045 32.0382C9.18096 32.5289 8.45564 32.3782 8.22224 31.7613C8.10265 31.4449 8.18345 31.1698 8.51644 31.0575C9.23725 30.8142 9.81823 30.4318 10.1447 29.6981C10.4255 29.0669 10.751 28.4553 11.072 27.8432C11.1679 27.6603 11.3002 27.4902 11.4422 27.3395C12.3155 26.4129 12.3046 26.2843 13.1887 27.4485C13.4172 27.7494 13.5852 28.1166 13.7048 28.4789C14.0816 29.6201 14.3972 30.7824 14.7954 31.9156C14.8871 32.1766 15.1841 32.4739 15.4401 32.5388C15.7621 32.6201 15.9491 32.303 16.0226 31.9671C16.0514 31.8358 16.1288 31.674 16.2343 31.6085C16.6637 31.3419 17.0949 31.0646 17.5585 30.8719C18.1199 30.6387 18.6682 30.7597 19.1104 31.1896C19.6241 31.6889 19.8825 32.3016 19.7245 33.0269C19.5037 34.0405 19.0043 34.3136 17.9874 34.1818C17.5168 34.1208 16.9813 34.18 16.5404 34.3536C15.4704 34.7747 14.47 34.8218 13.3925 34.3331C12.7211 34.0286 11.9554 33.9109 11.2191 33.7888C10.9346 33.7416 10.5704 33.8424 10.3182 33.9996C9.46711 34.5299 8.9885 34.5334 8.20623 33.9043C8.07432 33.7982 7.95382 33.6778 7.82804 33.564C7.83783 33.5179 7.84753 33.472 7.85735 33.426L7.85738 33.4259ZM10.6355 15.9549C10.496 16.2086 10.4178 16.2979 10.3957 16.3996C10.2894 16.8893 9.93655 16.9604 9.51695 17.1078C9.11097 17.2504 8.76806 17.6645 8.47686 18.0246C8.22316 18.3384 8.06557 18.7363 7.89216 19.1097C7.69837 19.5266 7.51426 19.9505 7.36374 20.3848C7.20723 20.8368 6.60285 21.1524 5.98795 20.9998C6.07383 20.8418 6.11446 20.6461 6.23114 20.5715C7.00684 20.0754 7.13335 19.2054 7.46564 18.4547C7.53033 18.3085 7.54325 18.1334 7.62696 18.0022C8.43356 16.7369 8.53426 15.2563 8.81655 13.8446C8.90455 13.4046 8.66585 12.8239 8.41514 12.4066C8.03234 11.7696 7.62203 11.2185 8.59174 10.585C8.29865 10.3435 8.02694 10.1837 7.84225 9.95298C7.52695 9.5591 7.57737 9.18729 7.91266 8.93927C8.31795 8.63967 8.61035 8.66996 8.93307 9.09926C9.09318 9.31234 9.22926 9.56485 9.30017 9.82105C9.45757 10.389 9.47447 10.4216 10.103 10.3901C9.93017 10.0488 9.75948 9.65095 10.139 9.40385C10.6522 9.06966 10.9842 9.51854 11.3687 9.88195C11.4966 9.73083 11.5903 9.53686 11.7418 9.46124C11.9549 9.35505 12.2108 9.29835 12.4487 9.29753C12.5619 9.29734 12.7228 9.45654 12.7707 9.57963C12.798 9.64972 12.6496 9.80052 12.564 9.90083C12.4746 10.0059 12.3658 10.0942 12.2654 10.1897C12.2666 10.2465 12.2677 10.3033 12.2687 10.3602C12.9522 10.4971 13.6356 10.6341 14.2668 10.7606C14.3153 10.1678 14.3303 9.69123 14.3991 9.22273C14.4782 8.68364 14.894 8.78134 15.259 8.82142C15.6663 8.86602 15.7811 9.14351 15.7679 9.50581C15.7582 9.77531 15.7344 10.0443 15.7133 10.3671C15.9288 10.3235 16.0807 10.2609 16.228 10.27C16.4914 10.2867 16.831 10.2568 16.9981 10.4062C17.4088 10.7735 17.7866 11.2004 18.0891 11.6624C18.3822 12.1101 18.3009 12.2196 17.7839 12.4096C17.7122 12.4359 17.6423 12.4675 17.5694 12.4974C17.8308 13.0069 18.0821 13.4937 18.3304 13.9822C18.5782 14.4696 18.8228 14.9588 19.0691 15.4472C19.1052 15.519 19.1885 15.6056 19.1712 15.6599C18.9594 16.3272 19.5243 16.4403 19.879 16.7228C20.1243 16.9181 20.3319 17.1675 20.5332 17.4122C21.0318 18.0181 21.2887 18.8397 22.1532 19.116C22.4456 19.2095 22.3973 19.5524 22.1169 19.7718C21.8959 19.9448 21.6905 20.1389 21.4818 20.3276C21.2393 20.5472 21.0009 20.7708 20.643 20.4862C20.7632 20.2921 20.9154 20.1227 20.9824 19.9241C21.1683 19.3731 20.818 18.9351 20.4976 18.6244C19.8124 17.9601 19.0304 17.3975 18.2868 16.7946C18.2377 16.7549 18.1529 16.6866 18.126 16.7025C17.4766 17.0877 17.3304 16.3848 17.0201 16.1751C16.7294 16.3253 16.4772 16.4556 16.2643 16.5657C16.1887 17.6866 16.1115 18.8268 16.0351 19.9672C16.0308 20.0315 16.0293 20.0965 16.0333 20.1607C16.0809 20.9285 16.0812 20.9263 15.2815 20.9474C15.026 20.9541 14.7701 20.9937 14.5155 20.9843C14.3441 20.9781 14.1748 20.9122 14.0045 20.8731C14.0029 20.831 14.0013 20.789 13.9997 20.7469C14.3182 20.5811 14.6463 20.4313 14.9505 20.2423C15.0834 20.1597 15.2617 19.9945 15.2589 19.8707C15.2344 18.7835 15.2074 17.6938 15.1043 16.6124C15.0707 16.259 15.0353 15.9599 15.2284 15.6503C15.3724 15.4192 15.4571 15.1497 15.6065 14.923C16.0282 14.2827 15.8829 13.6932 15.4684 13.1318C15.23 12.8089 14.9366 12.5265 14.7068 12.1981C14.1985 11.4719 13.3359 11.512 12.6414 11.1914C12.354 11.0587 12.0507 10.9608 11.717 10.8324C11.595 11.0043 11.4416 11.2206 11.2306 11.518C11.5647 11.8473 11.9308 12.1834 12.2668 12.5478C12.4953 12.796 12.7407 13.0579 12.8703 13.3609C13.0023 13.6697 12.9552 14.0222 12.5131 14.0964C12.1081 14.1644 11.6587 13.8523 11.7114 13.4712C11.7983 12.8444 11.2882 12.6927 10.9679 12.2811C11.1288 13.3608 11.5452 14.215 12.2915 14.8769C12.9786 15.4862 13.2205 16.2014 13.0641 17.1204C12.9272 17.9255 12.9492 18.7574 12.8231 19.5651C12.734 20.1358 12.8931 20.5007 13.392 20.7482C13.528 20.8157 13.6469 20.9182 13.8549 21.06C13.1325 21.2849 12.5773 21.044 12.0263 20.8296C11.9755 20.8099 11.9753 20.6117 11.9812 20.498C12.018 19.7986 12.0577 19.0993 12.1082 18.4007C12.1336 18.0493 12.1722 17.6979 12.2257 17.3496C12.3003 16.8636 12.1978 16.7715 11.7417 16.8434C11.5746 16.8697 11.3424 16.7995 11.2154 16.6868C11.0059 16.5008 10.8577 16.2445 10.6355 15.9549V15.9549ZM30.2634 20.4592C31.0377 19.9413 31.7028 19.5813 32.2643 19.0985C32.9191 18.5356 33.3869 17.7483 34.3307 17.5381C34.3186 17.4886 34.3063 17.4389 34.2941 17.3893C34.1134 17.2864 33.9085 17.2109 33.757 17.075C33.3779 16.735 33.0011 16.3876 32.6643 16.0064C32.2436 15.5305 31.9103 14.9677 31.4531 14.5355C31.0224 14.1284 30.4814 13.8389 29.9839 13.5056C29.8797 13.4359 29.7494 13.4072 29.6368 13.3486C29.0238 13.0297 28.6383 13.074 28.1116 13.5143C27.9531 13.6466 27.7874 13.7776 27.6064 13.873C27.2589 14.0563 26.9367 13.9921 26.7333 13.647C26.5064 13.2621 26.3307 12.8469 26.114 12.4554C25.9959 12.2421 25.8538 12.0378 25.6952 11.8534C25.5663 11.7033 25.5433 10.9872 25.7277 10.8705C26.1358 10.6126 26.067 10.1952 26.0468 9.84429C26.0213 9.40161 25.8611 8.96789 25.7714 8.52769C25.711 8.23049 25.6273 7.92808 25.6321 7.6293C25.643 6.94861 25.9974 6.5954 26.6232 6.5738C27.2913 6.55071 27.6813 6.87271 27.7775 7.53691C27.8632 8.1309 27.6631 8.64892 27.214 9.00421C26.5859 9.5012 26.4718 10.1862 26.4348 10.8971C26.4229 11.126 26.5911 11.3689 26.6927 11.5983C26.875 12.0104 27.0694 12.4172 27.3041 12.9238C27.5784 12.5544 27.7673 12.3031 27.953 12.0494C28.1815 11.7372 28.2901 11.3306 28.7318 11.1886C28.8373 11.1547 28.8942 10.8808 28.9212 10.7091C28.9467 10.5462 28.9038 10.372 28.8957 10.2654C28.6089 10.0194 28.299 9.81075 28.0756 9.53174C27.9945 9.43044 28.0586 9.11183 28.1633 8.97654C28.5387 8.49153 29.3754 8.39323 29.908 8.71355C30.1501 8.85917 30.4098 8.97506 30.7473 9.14856C31.2922 8.20087 31.8752 7.25007 32.3827 6.25995C32.5079 6.01585 32.3913 5.64366 32.3792 5.33054C32.3725 5.15533 32.3522 4.98053 32.3368 4.79085C32.6086 4.77736 32.6197 5.49625 33.039 4.99414C33.2115 5.35445 33.4234 5.63125 33.0674 6.00145C32.9123 6.16295 32.9249 6.48586 32.8548 6.73344C32.7455 7.12044 32.7056 7.55334 32.502 7.88184C32.1108 8.51294 32.188 9.18994 32.1644 9.86265C32.1604 9.97794 32.2102 10.117 32.2807 10.2098C32.7744 10.8588 33.28 11.4986 33.7818 12.1413C33.8313 12.2047 33.8688 12.2866 33.9322 12.3286C34.7609 12.8783 35.087 13.8786 35.8358 14.4913C36.1765 14.7701 36.2373 15.1253 36.2728 15.5116C36.3022 15.8319 36.3227 16.1532 36.35 16.5111C35.9923 16.5887 35.9858 16.8703 36.0697 17.1619C36.2083 17.6435 36.023 17.9588 35.6249 18.2073C34.9592 18.6227 34.298 19.0462 33.6443 19.4808C33.339 19.6838 33.0185 19.885 32.7703 20.1495C32.3714 20.5747 32.4591 20.9069 32.9766 21.1704C33.097 21.2317 33.217 21.2937 33.456 21.4163C33.2012 21.529 33.0556 21.5933 32.8826 21.6698C33.1012 21.956 32.9511 22.1319 32.6346 22.0754C32.2908 22.0141 31.9194 21.905 31.6447 21.7007C31.1543 21.3363 30.7275 20.8846 30.2633 20.4593L30.2634 20.4592ZM27.54 7.86927C27.5406 7.21918 27.172 6.68928 26.719 6.68615C26.2532 6.68306 25.9072 7.18456 25.9069 7.86355C25.9069 7.89574 25.9066 7.92805 25.9076 7.96024C25.9287 8.58155 26.2694 9.03763 26.7151 9.04123C27.1323 9.04442 27.4857 8.60492 27.5394 8.01403C27.5438 7.96614 27.5399 7.91753 27.5399 7.86924L27.54 7.86927ZM45.5679 22.8421C45.7288 10.4642 34.6995 1.64396 24.4126 1.77485C24.4126 8.78885 24.4126 15.803 24.4126 22.8421C31.4702 22.8421 38.5017 22.8421 45.5679 22.8421ZM23.0326 1.72725C10.8896 1.90344 1.38244 12.0232 1.77396 22.8385C8.85145 22.8385 15.9294 22.8385 23.0326 22.8385C23.0326 15.7939 23.0326 8.77777 23.0326 1.72725ZM23.0379 24.1901C15.931 24.1901 8.88165 24.1901 1.76186 24.1901C2.31235 29.9944 4.79425 34.7321 9.17395 38.4376C13.1701 41.8182 17.8216 43.4901 23.0379 43.6752C23.0379 37.1376 23.0379 30.6826 23.0379 24.1901ZM24.4218 24.1844C24.4218 30.6876 24.4218 37.1648 24.4218 43.6932C31.1177 43.3073 36.712 40.7273 41.0016 35.5151C43.6937 32.2443 45.1916 28.457 45.5297 24.1844C38.4453 24.1844 31.4433 24.1844 24.4218 24.1844V24.1844Z" fill="white"/>
</g>
<defs>
<clipPath id="clip0_511_1734">
<rect width="135.457" height="45.3698" fill="white"/>
</clipPath>
</defs>
</svg>
