<svg width="15" height="11" viewBox="0 0 15 11" fill="none" xmlns="http://www.w3.org/2000/svg">
<path d="M9.94336 5.233L15.0002 8.42987V1.90112L9.94336 5.233Z" fill="black"/>
<path d="M0 1.90112V8.42987L5.05687 5.233L0 1.90112Z" fill="black"/>
<path d="M14.0628 0H0.937701C0.469886 0 0.0986333 0.34875 0.0283203 0.797813L7.50024 5.72063L14.9722 0.797813C14.9019 0.34875 14.5306 0 14.0628 0Z" fill="black"/>
<path d="M9.08465 5.79928L7.75808 6.67303C7.67933 6.72459 7.59027 6.7499 7.50027 6.7499C7.41027 6.7499 7.32121 6.72459 7.24246 6.67303L5.9159 5.79834L0.0302734 9.52115C0.102461 9.96646 0.471836 10.3124 0.937773 10.3124H14.0628C14.5287 10.3124 14.8981 9.96646 14.9703 9.52115L9.08465 5.79928Z" fill="black"/>
</svg>
