<svg width="12" height="13" viewBox="0 0 12 13" fill="none" xmlns="http://www.w3.org/2000/svg">
<path d="M5.81877 0C3.96162 0 2.44348 1.51813 2.44348 3.37529C2.44348 5.23244 3.96162 6.75058 5.81877 6.75058C7.67592 6.75058 9.19406 5.23244 9.19406 3.37529C9.19406 1.51813 7.67592 0 5.81877 0Z" fill="#939393"/>
<path d="M11.6117 9.44801C11.5233 9.22691 11.4054 9.02057 11.2727 8.82896C10.5947 7.82668 9.54823 7.16342 8.36909 7.00128C8.22172 6.98656 8.05958 7.01601 7.94166 7.10446C7.32261 7.56137 6.58566 7.7972 5.8192 7.7972C5.05274 7.7972 4.31579 7.56137 3.69674 7.10446C3.57882 7.01601 3.41668 6.9718 3.2693 7.00128C2.09016 7.16342 1.02895 7.82668 0.365689 8.82896C0.233037 9.02057 0.115112 9.24167 0.0266961 9.44801C-0.0175118 9.53645 -0.00278522 9.63962 0.0414227 9.72807C0.159348 9.93441 0.306726 10.1408 0.439378 10.3176C0.645719 10.5977 0.866815 10.8482 1.11739 11.0841C1.32373 11.2904 1.55956 11.482 1.79541 11.6736C2.95979 12.5433 4.36003 13.0002 5.80447 13.0002C7.24892 13.0002 8.64915 12.5432 9.81354 11.6736C10.0494 11.4968 10.2852 11.2904 10.4916 11.0841C10.7274 10.8482 10.9632 10.5977 11.1696 10.3176C11.3169 10.126 11.4496 9.93441 11.5675 9.72807C11.6412 9.63962 11.6559 9.53643 11.6117 9.44801Z" fill="#939393"/>
</svg>
