<svg width="19" height="18" viewBox="0 0 19 18" fill="none" xmlns="http://www.w3.org/2000/svg">
<path d="M18.3644 6.52017C18.3016 6.3292 18.1347 6.19009 17.9338 6.16126L12.2896 5.35035L9.76538 0.293941C9.67552 0.113906 9.49011 0 9.28706 0C9.08404 0 8.8986 0.113906 8.80874 0.293941L6.28438 5.35032L0.640291 6.16126C0.439411 6.19009 0.272419 6.3292 0.209727 6.5201C0.146963 6.71107 0.199307 6.92064 0.344678 7.0607L4.42871 10.9966L3.46474 16.5542C3.43042 16.7521 3.51271 16.952 3.67696 17.07C3.84121 17.1879 4.05891 17.2035 4.23871 17.1101L9.28702 14.4861L14.3352 17.1101C14.4133 17.1506 14.4985 17.1706 14.5834 17.1706C14.694 17.1706 14.8041 17.1367 14.8969 17.07C15.0612 16.952 15.1435 16.752 15.1092 16.5542L14.1449 10.9966L18.2294 7.0607C18.3748 6.9206 18.4271 6.71104 18.3644 6.52017Z" fill="url(#paint0_linear_0_5982)"/>
<defs>
<linearGradient id="paint0_linear_0_5982" x1="0.5" y1="7" x2="18" y2="7" gradientUnits="userSpaceOnUse">
<stop stop-color="#FED42D"/>
<stop offset="0.499359" stop-color="#FDCC2B"/>
<stop offset="0.502019" stop-color="#FCBF29"/>
<stop offset="1" stop-color="#FCBF29"/>
</linearGradient>
</defs>
</svg>
