<svg width="16" height="20" viewBox="0 0 16 20" fill="none" xmlns="http://www.w3.org/2000/svg">
<path d="M6.10815 1.20728H9.45074V1.76971H10.6579V1.12854C10.658 0.506287 10.152 0 9.53009 0H6.02881C5.40686 0 4.90088 0.506287 4.90088 1.12854V1.76971H6.10815V1.20728Z" fill="#95979C"/>
<path d="M13.4458 6.55273H2.11337C1.80285 6.55273 1.5584 6.81763 1.58343 7.12723L2.53085 18.8423C2.58364 19.4963 3.12914 20 3.78451 20H11.7745C12.4298 20 12.9753 19.4963 13.0281 18.8422L13.9755 7.12723C14.0007 6.81763 13.7563 6.55273 13.4458 6.55273ZM4.85735 18.7505C4.84469 18.7512 4.83203 18.7517 4.81951 18.7517C4.50305 18.7517 4.23739 18.5052 4.21771 18.1851L3.62399 8.56766C3.60354 8.23486 3.85668 7.94846 4.18932 7.92801C4.5209 7.90787 4.80853 8.1604 4.82897 8.49335L5.42254 18.1108C5.44314 18.4436 5.19 18.7299 4.85735 18.7505ZM8.38992 18.148C8.38992 18.4813 8.11968 18.7515 7.78628 18.7515C7.45287 18.7515 7.18264 18.4813 7.18264 18.148V8.53043C7.18264 8.19702 7.45287 7.92679 7.78628 7.92679C8.11953 7.92679 8.38992 8.19702 8.38992 8.53043V18.148ZM11.9351 8.56598L11.3683 18.1834C11.3495 18.5042 11.0834 18.7515 10.7663 18.7515C10.7544 18.7515 10.7424 18.7512 10.7303 18.7506C10.3975 18.7309 10.1436 18.4453 10.1633 18.1125L10.73 8.49487C10.7495 8.16208 11.0343 7.90817 11.368 7.92786C11.7008 7.94739 11.9547 8.23318 11.9351 8.56598Z" fill="#95979C"/>
<path d="M15.5331 4.68951L15.1367 3.50116C15.0322 3.1879 14.7389 2.97656 14.4085 2.97656H1.15034C0.820139 2.97656 0.526713 3.1879 0.422343 3.50116L0.0259194 4.68951C-0.0505271 4.9187 0.0489602 5.15247 0.23466 5.26904C0.310343 5.3165 0.399912 5.34503 0.498331 5.34503H15.0607C15.1591 5.34503 15.2489 5.3165 15.3244 5.26889C15.5101 5.15231 15.6096 4.91855 15.5331 4.68951Z" fill="#95979C"/>
</svg>
