<svg width="25" height="25" viewBox="0 0 25 25" fill="none" xmlns="http://www.w3.org/2000/svg">
<path d="M0 25L1.72412 18.75C0.603467 16.8104 0 14.6552 0 12.4138C0 5.60347 5.60347 0 12.4569 0C19.3103 0 25 5.60347 25 12.4138C25 19.2241 19.3104 25 12.4569 25C10.3017 25 8.23276 24.3104 6.3793 23.2759L0 25Z" fill="#EDEDED"/>
<path d="M6.72324 21.0355L7.11118 21.2511C8.70601 22.2424 10.5595 22.8459 12.4991 22.8459C18.1457 22.8459 22.8439 18.1476 22.8439 12.4148C22.8439 6.68208 18.1457 2.15625 12.456 2.15625C6.76636 2.15625 2.1543 6.72519 2.1543 12.4148C2.1543 14.3976 2.71465 16.3373 3.74912 17.9752L4.00776 18.3631L3.01641 21.9838L6.72324 21.0355Z" fill="#55CD6C"/>
<path d="M9.13843 6.63687L8.31949 6.59375C8.06085 6.59375 7.80225 6.67998 7.62984 6.85239C7.2419 7.19722 6.59537 7.84375 6.42296 8.70586C6.12125 9.99897 6.59537 11.5507 7.71607 13.1024C8.83677 14.6541 10.992 17.1541 14.785 18.2317C15.9919 18.5765 16.9402 18.361 17.7161 17.8869C18.3195 17.4989 18.7074 16.8955 18.8368 16.2489L18.9661 15.6455C19.0092 15.473 18.923 15.2575 18.7505 15.1713L16.035 13.9213C15.8626 13.8351 15.6471 13.8782 15.5178 14.0506L14.4402 15.4299C14.354 15.5162 14.2247 15.5592 14.0954 15.5162C13.3626 15.2575 10.9057 14.223 9.56949 11.6369C9.52637 11.5076 9.52637 11.3782 9.6126 11.292L10.6471 10.1283C10.7333 9.99897 10.7764 9.82656 10.7333 9.69722L9.48331 6.89551C9.44014 6.76616 9.31085 6.63687 9.13843 6.63687Z" fill="#FEFEFE"/>
</svg>
