<svg width="20" height="20" viewBox="0 0 20 20" fill="none" xmlns="http://www.w3.org/2000/svg">
<path d="M0 20L1.3793 15C0.482773 13.4483 0 11.7241 0 9.93102C0 4.48277 4.48277 0 9.96551 0C15.4482 0 20 4.48277 20 9.93102C20 15.3793 15.4483 20 9.96551 20C8.24137 20 6.58621 19.4483 5.10344 18.6207L0 20Z" fill="#EDEDED"/>
<path d="M5.37879 16.8276L5.68914 17C6.965 17.7931 8.44777 18.2759 9.99949 18.2759C14.5167 18.2759 18.2754 14.5173 18.2754 9.93106C18.2754 5.34485 14.5167 1.72418 9.965 1.72418C5.41328 1.72418 1.72363 5.37934 1.72363 9.93106C1.72363 11.5173 2.17191 13.069 2.99949 14.3793L3.20641 14.6897L2.41332 17.5863L5.37879 16.8276Z" fill="#55CD6C"/>
<path d="M7.31094 5.31031L6.65579 5.27582C6.44887 5.27582 6.242 5.3448 6.10407 5.48273C5.79372 5.75859 5.27649 6.27582 5.13856 6.96551C4.89719 8 5.27649 9.24136 6.17305 10.4827C7.06961 11.7241 8.79376 13.7241 11.8282 14.5862C12.7937 14.862 13.5523 14.6896 14.1731 14.3103C14.6558 14 14.9661 13.5172 15.0696 13L15.1731 12.5172C15.2075 12.3793 15.1386 12.2068 15.0006 12.1379L12.8282 11.1379C12.6903 11.0689 12.5179 11.1034 12.4144 11.2413L11.5523 12.3448C11.4834 12.4137 11.3799 12.4482 11.2765 12.4137C10.6903 12.2068 8.72477 11.3793 7.65579 9.31031C7.62129 9.20687 7.62129 9.1034 7.69028 9.03445L8.51786 8.10344C8.58684 8 8.62129 7.86207 8.58684 7.75859L7.58684 5.51722C7.55231 5.41375 7.44887 5.31031 7.31094 5.31031Z" fill="#FEFEFE"/>
</svg>
